%TF.GenerationSoftware,KiCad,Pcbnew,6.0.5-2.fc35*%
%TF.CreationDate,2022-09-23T18:32:41+02:00*%
%TF.ProjectId,Stromversorgung f_r Breadboard,5374726f-6d76-4657-9273-6f7267756e67,1*%
%TF.SameCoordinates,Original*%
%TF.FileFunction,Legend,Bot*%
%TF.FilePolarity,Positive*%
%FSLAX46Y46*%
G04 Gerber Fmt 4.6, Leading zero omitted, Abs format (unit mm)*
G04 Created by KiCad (PCBNEW 6.0.5-2.fc35) date 2022-09-23 18:32:41*
%MOMM*%
%LPD*%
G01*
G04 APERTURE LIST*
%ADD10C,0.150000*%
%ADD11C,0.120000*%
G04 APERTURE END LIST*
D10*
%TO.C,J3*%
X162512333Y-86193380D02*
X162512333Y-86907666D01*
X162559952Y-87050523D01*
X162655190Y-87145761D01*
X162798047Y-87193380D01*
X162893285Y-87193380D01*
X162131380Y-86193380D02*
X161512333Y-86193380D01*
X161845666Y-86574333D01*
X161702809Y-86574333D01*
X161607571Y-86621952D01*
X161559952Y-86669571D01*
X161512333Y-86764809D01*
X161512333Y-87002904D01*
X161559952Y-87098142D01*
X161607571Y-87145761D01*
X161702809Y-87193380D01*
X161988523Y-87193380D01*
X162083761Y-87145761D01*
X162131380Y-87098142D01*
%TO.C,J2*%
X118133533Y-86193380D02*
X118133533Y-86907666D01*
X118181152Y-87050523D01*
X118276390Y-87145761D01*
X118419247Y-87193380D01*
X118514485Y-87193380D01*
X117704961Y-86288619D02*
X117657342Y-86241000D01*
X117562104Y-86193380D01*
X117324009Y-86193380D01*
X117228771Y-86241000D01*
X117181152Y-86288619D01*
X117133533Y-86383857D01*
X117133533Y-86479095D01*
X117181152Y-86621952D01*
X117752580Y-87193380D01*
X117133533Y-87193380D01*
D11*
%TO.C,J3*%
X164801000Y-87946000D02*
X164801000Y-93146000D01*
X162201000Y-87946000D02*
X164801000Y-87946000D01*
X162201000Y-87946000D02*
X162201000Y-90546000D01*
X160931000Y-87946000D02*
X159601000Y-87946000D01*
X159601000Y-93146000D02*
X164801000Y-93146000D01*
X159601000Y-90546000D02*
X159601000Y-93146000D01*
X159601000Y-87946000D02*
X159601000Y-89276000D01*
X162201000Y-90546000D02*
X159601000Y-90546000D01*
%TO.C,J2*%
X115251000Y-93146000D02*
X120451000Y-93146000D01*
X120451000Y-87946000D02*
X120451000Y-93146000D01*
X117851000Y-87946000D02*
X120451000Y-87946000D01*
X117851000Y-90546000D02*
X115251000Y-90546000D01*
X115251000Y-87946000D02*
X115251000Y-89276000D01*
X115251000Y-90546000D02*
X115251000Y-93146000D01*
X117851000Y-87946000D02*
X117851000Y-90546000D01*
X116581000Y-87946000D02*
X115251000Y-87946000D01*
%TD*%
M02*
