M48
; DRILL file {KiCad 6.0.5-2.fc35} date Fri 23 Sep 2022 06:20:58 PM CEST
; FORMAT={-:-/ absolute / inch / decimal}
; #@! TF.CreationDate,2022-09-23T18:20:58+02:00
; #@! TF.GenerationSoftware,Kicad,Pcbnew,6.0.5-2.fc35
; #@! TF.FileFunction,Plated,1,2,PTH
FMAT,2
INCH
; #@! TA.AperFunction,Plated,PTH,ComponentDrill
T1C0.0315
; #@! TA.AperFunction,Plated,PTH,ComponentDrill
T2C0.0354
; #@! TA.AperFunction,Plated,PTH,ComponentDrill
T3C0.0394
; #@! TA.AperFunction,Plated,PTH,ComponentDrill
T4C0.0402
; #@! TA.AperFunction,Plated,PTH,ComponentDrill
T5C0.0433
%
G90
G05
T1
X5.2113Y-2.915
X5.5113Y-2.915
X5.715Y-2.945
X5.8134Y-2.945
X6.135Y-2.915
X6.435Y-2.915
T2
X5.2478Y-2.713
X5.3478Y-2.713
X5.7217Y-2.6224
X5.7217Y-2.7523
X5.8202Y-2.6224
X5.8202Y-2.7523
X5.9186Y-2.6224
X5.9186Y-2.7523
X6.2968Y-2.713
X6.3968Y-2.713
T3
X4.5898Y-3.5148
X4.5898Y-3.6148
X4.6898Y-3.5148
X4.6898Y-3.6148
X5.9368Y-3.205
X6.1336Y-3.205
X6.3359Y-3.5148
X6.3359Y-3.6148
X6.4359Y-3.5148
X6.4359Y-3.6148
T5
X4.875Y-3.37
X5.17Y-3.095
X5.17Y-3.23
X5.275Y-3.37
X5.395Y-3.37
X5.57Y-3.095
X5.57Y-3.23
X5.795Y-3.37
X6.34Y-3.115
X6.34Y-3.215
X6.34Y-3.315
T4
G00X4.9141Y-3.0308
M15
G01X4.7959Y-3.0308
M16
G05
G00X4.9141Y-3.2348
M15
G01X4.7959Y-3.2348
M16
G05
T0
M30
