%TF.GenerationSoftware,KiCad,Pcbnew,6.0.5-2.fc35*%
%TF.CreationDate,2022-09-23T18:32:41+02:00*%
%TF.ProjectId,Stromversorgung f_r Breadboard,5374726f-6d76-4657-9273-6f7267756e67,1*%
%TF.SameCoordinates,Original*%
%TF.FileFunction,Soldermask,Top*%
%TF.FilePolarity,Negative*%
%FSLAX46Y46*%
G04 Gerber Fmt 4.6, Leading zero omitted, Abs format (unit mm)*
G04 Created by KiCad (PCBNEW 6.0.5-2.fc35) date 2022-09-23 18:32:41*
%MOMM*%
%LPD*%
G01*
G04 APERTURE LIST*
%ADD10R,1.800000X1.800000*%
%ADD11C,1.800000*%
%ADD12R,1.400000X1.400000*%
%ADD13C,1.400000*%
%ADD14R,2.200000X2.200000*%
%ADD15O,2.200000X2.200000*%
%ADD16C,1.600000*%
%ADD17O,1.600000X1.600000*%
%ADD18R,2.000000X2.000000*%
%ADD19C,2.000000*%
%ADD20R,2.000000X1.905000*%
%ADD21O,2.000000X1.905000*%
%ADD22R,1.600000X1.600000*%
%ADD23R,5.020000X2.020000*%
%ADD24O,5.020000X2.020000*%
%ADD25R,1.700000X1.700000*%
%ADD26O,1.700000X1.700000*%
G04 APERTURE END LIST*
D10*
%TO.C,D5*%
X133295000Y-68909000D03*
D11*
X135835000Y-68909000D03*
%TD*%
D12*
%TO.C,SW1*%
X150332000Y-69909000D03*
D13*
X147832000Y-69909000D03*
X145332000Y-69909000D03*
X150332000Y-66609000D03*
X147832000Y-66609000D03*
X145332000Y-66609000D03*
%TD*%
D14*
%TO.C,D2*%
X141478000Y-78613000D03*
D15*
X131318000Y-78613000D03*
%TD*%
D16*
%TO.C,R1*%
X132368000Y-74041000D03*
D17*
X139988000Y-74041000D03*
%TD*%
D18*
%TO.C,C1*%
X150794323Y-81407000D03*
D19*
X155794323Y-81407000D03*
%TD*%
D20*
%TO.C,U1*%
X161036000Y-79121000D03*
D21*
X161036000Y-81661000D03*
X161036000Y-84201000D03*
%TD*%
D14*
%TO.C,D3*%
X141478000Y-82042000D03*
D15*
X131318000Y-82042000D03*
%TD*%
D14*
%TO.C,D1*%
X147193000Y-85598000D03*
D15*
X137033000Y-85598000D03*
%TD*%
D14*
%TO.C,D4*%
X133985000Y-85598000D03*
D15*
X123825000Y-85598000D03*
%TD*%
D16*
%TO.C,R2*%
X155829000Y-74041000D03*
D17*
X163449000Y-74041000D03*
%TD*%
D22*
%TO.C,C2*%
X145161000Y-74803000D03*
D16*
X147661000Y-74803000D03*
%TD*%
D10*
%TO.C,D6*%
X159938000Y-68909000D03*
D11*
X162478000Y-68909000D03*
%TD*%
D23*
%TO.C,J1*%
X123317000Y-82163000D03*
D24*
X123317000Y-76983000D03*
%TD*%
D25*
%TO.C,J3*%
X160931000Y-89276000D03*
D26*
X160931000Y-91816000D03*
X163471000Y-89276000D03*
X163471000Y-91816000D03*
%TD*%
D25*
%TO.C,J2*%
X116581000Y-89276000D03*
D26*
X116581000Y-91816000D03*
X119121000Y-89276000D03*
X119121000Y-91816000D03*
%TD*%
M02*
