%TF.GenerationSoftware,KiCad,Pcbnew,6.0.5-2.fc35*%
%TF.CreationDate,2022-09-23T18:34:09+02:00*%
%TF.ProjectId,Hello_ World,48656c6c-6f2c-4205-976f-726c642e6b69,rev?*%
%TF.SameCoordinates,Original*%
%TF.FileFunction,Legend,Top*%
%TF.FilePolarity,Positive*%
%FSLAX46Y46*%
G04 Gerber Fmt 4.6, Leading zero omitted, Abs format (unit mm)*
G04 Created by KiCad (PCBNEW 6.0.5-2.fc35) date 2022-09-23 18:34:09*
%MOMM*%
%LPD*%
G01*
G04 APERTURE LIST*
%ADD10C,0.150000*%
%ADD11C,0.120000*%
G04 APERTURE END LIST*
D10*
X143764047Y-96591428D02*
X144525952Y-96591428D01*
X144145000Y-96972380D02*
X144145000Y-96210476D01*
X143764047Y-105481428D02*
X144525952Y-105481428D01*
X135240714Y-107767380D02*
X135240714Y-106767380D01*
X135240714Y-107243571D02*
X135812142Y-107243571D01*
X135812142Y-107767380D02*
X135812142Y-106767380D01*
X136669285Y-107719761D02*
X136574047Y-107767380D01*
X136383571Y-107767380D01*
X136288333Y-107719761D01*
X136240714Y-107624523D01*
X136240714Y-107243571D01*
X136288333Y-107148333D01*
X136383571Y-107100714D01*
X136574047Y-107100714D01*
X136669285Y-107148333D01*
X136716904Y-107243571D01*
X136716904Y-107338809D01*
X136240714Y-107434047D01*
X137288333Y-107767380D02*
X137193095Y-107719761D01*
X137145476Y-107624523D01*
X137145476Y-106767380D01*
X137812142Y-107767380D02*
X137716904Y-107719761D01*
X137669285Y-107624523D01*
X137669285Y-106767380D01*
X138335952Y-107767380D02*
X138240714Y-107719761D01*
X138193095Y-107672142D01*
X138145476Y-107576904D01*
X138145476Y-107291190D01*
X138193095Y-107195952D01*
X138240714Y-107148333D01*
X138335952Y-107100714D01*
X138478809Y-107100714D01*
X138574047Y-107148333D01*
X138621666Y-107195952D01*
X138669285Y-107291190D01*
X138669285Y-107576904D01*
X138621666Y-107672142D01*
X138574047Y-107719761D01*
X138478809Y-107767380D01*
X138335952Y-107767380D01*
X139145476Y-107719761D02*
X139145476Y-107767380D01*
X139097857Y-107862619D01*
X139050238Y-107910238D01*
X140240714Y-106767380D02*
X140478809Y-107767380D01*
X140669285Y-107053095D01*
X140859761Y-107767380D01*
X141097857Y-106767380D01*
X141621666Y-107767380D02*
X141526428Y-107719761D01*
X141478809Y-107672142D01*
X141431190Y-107576904D01*
X141431190Y-107291190D01*
X141478809Y-107195952D01*
X141526428Y-107148333D01*
X141621666Y-107100714D01*
X141764523Y-107100714D01*
X141859761Y-107148333D01*
X141907380Y-107195952D01*
X141955000Y-107291190D01*
X141955000Y-107576904D01*
X141907380Y-107672142D01*
X141859761Y-107719761D01*
X141764523Y-107767380D01*
X141621666Y-107767380D01*
X142383571Y-107767380D02*
X142383571Y-107100714D01*
X142383571Y-107291190D02*
X142431190Y-107195952D01*
X142478809Y-107148333D01*
X142574047Y-107100714D01*
X142669285Y-107100714D01*
X143145476Y-107767380D02*
X143050238Y-107719761D01*
X143002619Y-107624523D01*
X143002619Y-106767380D01*
X143955000Y-107767380D02*
X143955000Y-106767380D01*
X143955000Y-107719761D02*
X143859761Y-107767380D01*
X143669285Y-107767380D01*
X143574047Y-107719761D01*
X143526428Y-107672142D01*
X143478809Y-107576904D01*
X143478809Y-107291190D01*
X143526428Y-107195952D01*
X143574047Y-107148333D01*
X143669285Y-107100714D01*
X143859761Y-107100714D01*
X143955000Y-107148333D01*
X144431190Y-107672142D02*
X144478809Y-107719761D01*
X144431190Y-107767380D01*
X144383571Y-107719761D01*
X144431190Y-107672142D01*
X144431190Y-107767380D01*
X144431190Y-107386428D02*
X144383571Y-106815000D01*
X144431190Y-106767380D01*
X144478809Y-106815000D01*
X144431190Y-107386428D01*
X144431190Y-106767380D01*
X145955000Y-108148333D02*
X145907380Y-108100714D01*
X145812142Y-107957857D01*
X145764523Y-107862619D01*
X145716904Y-107719761D01*
X145669285Y-107481666D01*
X145669285Y-107291190D01*
X145716904Y-107053095D01*
X145764523Y-106910238D01*
X145812142Y-106815000D01*
X145907380Y-106672142D01*
X145955000Y-106624523D01*
X146907380Y-107767380D02*
X146574047Y-107291190D01*
X146335952Y-107767380D02*
X146335952Y-106767380D01*
X146716904Y-106767380D01*
X146812142Y-106815000D01*
X146859761Y-106862619D01*
X146907380Y-106957857D01*
X146907380Y-107100714D01*
X146859761Y-107195952D01*
X146812142Y-107243571D01*
X146716904Y-107291190D01*
X146335952Y-107291190D01*
X147716904Y-107719761D02*
X147621666Y-107767380D01*
X147431190Y-107767380D01*
X147335952Y-107719761D01*
X147288333Y-107624523D01*
X147288333Y-107243571D01*
X147335952Y-107148333D01*
X147431190Y-107100714D01*
X147621666Y-107100714D01*
X147716904Y-107148333D01*
X147764523Y-107243571D01*
X147764523Y-107338809D01*
X147288333Y-107434047D01*
X148097857Y-107100714D02*
X148335952Y-107767380D01*
X148574047Y-107100714D01*
X150240714Y-107767380D02*
X149669285Y-107767380D01*
X149955000Y-107767380D02*
X149955000Y-106767380D01*
X149859761Y-106910238D01*
X149764523Y-107005476D01*
X149669285Y-107053095D01*
X150716904Y-107719761D02*
X150716904Y-107767380D01*
X150669285Y-107862619D01*
X150621666Y-107910238D01*
X151859761Y-106862619D02*
X151907380Y-106815000D01*
X152002619Y-106767380D01*
X152240714Y-106767380D01*
X152335952Y-106815000D01*
X152383571Y-106862619D01*
X152431190Y-106957857D01*
X152431190Y-107053095D01*
X152383571Y-107195952D01*
X151812142Y-107767380D01*
X152431190Y-107767380D01*
X152812142Y-106862619D02*
X152859761Y-106815000D01*
X152955000Y-106767380D01*
X153193095Y-106767380D01*
X153288333Y-106815000D01*
X153335952Y-106862619D01*
X153383571Y-106957857D01*
X153383571Y-107053095D01*
X153335952Y-107195952D01*
X152764523Y-107767380D01*
X153383571Y-107767380D01*
X153812142Y-107672142D02*
X153859761Y-107719761D01*
X153812142Y-107767380D01*
X153764523Y-107719761D01*
X153812142Y-107672142D01*
X153812142Y-107767380D01*
X154478809Y-106767380D02*
X154574047Y-106767380D01*
X154669285Y-106815000D01*
X154716904Y-106862619D01*
X154764523Y-106957857D01*
X154812142Y-107148333D01*
X154812142Y-107386428D01*
X154764523Y-107576904D01*
X154716904Y-107672142D01*
X154669285Y-107719761D01*
X154574047Y-107767380D01*
X154478809Y-107767380D01*
X154383571Y-107719761D01*
X154335952Y-107672142D01*
X154288333Y-107576904D01*
X154240714Y-107386428D01*
X154240714Y-107148333D01*
X154288333Y-106957857D01*
X154335952Y-106862619D01*
X154383571Y-106815000D01*
X154478809Y-106767380D01*
X155288333Y-107767380D02*
X155478809Y-107767380D01*
X155574047Y-107719761D01*
X155621666Y-107672142D01*
X155716904Y-107529285D01*
X155764523Y-107338809D01*
X155764523Y-106957857D01*
X155716904Y-106862619D01*
X155669285Y-106815000D01*
X155574047Y-106767380D01*
X155383571Y-106767380D01*
X155288333Y-106815000D01*
X155240714Y-106862619D01*
X155193095Y-106957857D01*
X155193095Y-107195952D01*
X155240714Y-107291190D01*
X155288333Y-107338809D01*
X155383571Y-107386428D01*
X155574047Y-107386428D01*
X155669285Y-107338809D01*
X155716904Y-107291190D01*
X155764523Y-107195952D01*
X156193095Y-107672142D02*
X156240714Y-107719761D01*
X156193095Y-107767380D01*
X156145476Y-107719761D01*
X156193095Y-107672142D01*
X156193095Y-107767380D01*
X156621666Y-106862619D02*
X156669285Y-106815000D01*
X156764523Y-106767380D01*
X157002619Y-106767380D01*
X157097857Y-106815000D01*
X157145476Y-106862619D01*
X157193095Y-106957857D01*
X157193095Y-107053095D01*
X157145476Y-107195952D01*
X156574047Y-107767380D01*
X157193095Y-107767380D01*
X157812142Y-106767380D02*
X157907380Y-106767380D01*
X158002619Y-106815000D01*
X158050238Y-106862619D01*
X158097857Y-106957857D01*
X158145476Y-107148333D01*
X158145476Y-107386428D01*
X158097857Y-107576904D01*
X158050238Y-107672142D01*
X158002619Y-107719761D01*
X157907380Y-107767380D01*
X157812142Y-107767380D01*
X157716904Y-107719761D01*
X157669285Y-107672142D01*
X157621666Y-107576904D01*
X157574047Y-107386428D01*
X157574047Y-107148333D01*
X157621666Y-106957857D01*
X157669285Y-106862619D01*
X157716904Y-106815000D01*
X157812142Y-106767380D01*
X158526428Y-106862619D02*
X158574047Y-106815000D01*
X158669285Y-106767380D01*
X158907380Y-106767380D01*
X159002619Y-106815000D01*
X159050238Y-106862619D01*
X159097857Y-106957857D01*
X159097857Y-107053095D01*
X159050238Y-107195952D01*
X158478809Y-107767380D01*
X159097857Y-107767380D01*
X159478809Y-106862619D02*
X159526428Y-106815000D01*
X159621666Y-106767380D01*
X159859761Y-106767380D01*
X159955000Y-106815000D01*
X160002619Y-106862619D01*
X160050238Y-106957857D01*
X160050238Y-107053095D01*
X160002619Y-107195952D01*
X159431190Y-107767380D01*
X160050238Y-107767380D01*
X160383571Y-108148333D02*
X160431190Y-108100714D01*
X160526428Y-107957857D01*
X160574047Y-107862619D01*
X160621666Y-107719761D01*
X160669285Y-107481666D01*
X160669285Y-107291190D01*
X160621666Y-107053095D01*
X160574047Y-106910238D01*
X160526428Y-106815000D01*
X160431190Y-106672142D01*
X160383571Y-106624523D01*
%TO.C,J1*%
X135977380Y-94948333D02*
X136691666Y-94948333D01*
X136834523Y-94995952D01*
X136929761Y-95091190D01*
X136977380Y-95234047D01*
X136977380Y-95329285D01*
X136977380Y-93948333D02*
X136977380Y-94519761D01*
X136977380Y-94234047D02*
X135977380Y-94234047D01*
X136120238Y-94329285D01*
X136215476Y-94424523D01*
X136263095Y-94519761D01*
%TO.C,D1*%
X150947380Y-96623095D02*
X149947380Y-96623095D01*
X149947380Y-96385000D01*
X149995000Y-96242142D01*
X150090238Y-96146904D01*
X150185476Y-96099285D01*
X150375952Y-96051666D01*
X150518809Y-96051666D01*
X150709285Y-96099285D01*
X150804523Y-96146904D01*
X150899761Y-96242142D01*
X150947380Y-96385000D01*
X150947380Y-96623095D01*
X150947380Y-95099285D02*
X150947380Y-95670714D01*
X150947380Y-95385000D02*
X149947380Y-95385000D01*
X150090238Y-95480238D01*
X150185476Y-95575476D01*
X150233095Y-95670714D01*
%TO.C,R1*%
X145867380Y-101766666D02*
X145391190Y-102100000D01*
X145867380Y-102338095D02*
X144867380Y-102338095D01*
X144867380Y-101957142D01*
X144915000Y-101861904D01*
X144962619Y-101814285D01*
X145057857Y-101766666D01*
X145200714Y-101766666D01*
X145295952Y-101814285D01*
X145343571Y-101861904D01*
X145391190Y-101957142D01*
X145391190Y-102338095D01*
X145867380Y-100814285D02*
X145867380Y-101385714D01*
X145867380Y-101100000D02*
X144867380Y-101100000D01*
X145010238Y-101195238D01*
X145105476Y-101290476D01*
X145153095Y-101385714D01*
D11*
%TO.C,J1*%
X143510000Y-106045000D02*
X143510000Y-95885000D01*
X135890000Y-95885000D02*
X135890000Y-106045000D01*
X135890000Y-106045000D02*
X143510000Y-106045000D01*
X142240000Y-95885000D02*
X142240000Y-106045000D01*
X143510000Y-95885000D02*
X135890000Y-95885000D01*
%TO.C,D1*%
X152163000Y-104395000D02*
X156447000Y-104395000D01*
X154305486Y-95745000D02*
G75*
G03*
X152163855Y-104395000I-486J-4590000D01*
G01*
X156446145Y-104395000D02*
G75*
G03*
X154304514Y-95745000I-2141145J4060000D01*
G01*
X158305000Y-100335000D02*
G75*
G03*
X158305000Y-100335000I-4000000J0D01*
G01*
%TO.C,R1*%
X148240000Y-99680000D02*
X148240000Y-103520000D01*
X146400000Y-99680000D02*
X146400000Y-103520000D01*
%TD*%
M02*
