%TF.GenerationSoftware,KiCad,Pcbnew,6.0.5-2.fc35*%
%TF.CreationDate,2022-09-23T18:33:46+02:00*%
%TF.ProjectId,LED-Board,4c45442d-426f-4617-9264-2e6b69636164,rev?*%
%TF.SameCoordinates,Original*%
%TF.FileFunction,Legend,Top*%
%TF.FilePolarity,Positive*%
%FSLAX46Y46*%
G04 Gerber Fmt 4.6, Leading zero omitted, Abs format (unit mm)*
G04 Created by KiCad (PCBNEW 6.0.5-2.fc35) date 2022-09-23 18:33:46*
%MOMM*%
%LPD*%
G01*
G04 APERTURE LIST*
%ADD10C,0.150000*%
%ADD11C,0.120000*%
G04 APERTURE END LIST*
D10*
X151531785Y-103417142D02*
X150781785Y-103417142D01*
X150781785Y-103238571D01*
X150817500Y-103131428D01*
X150888928Y-103060000D01*
X150960357Y-103024285D01*
X151103214Y-102988571D01*
X151210357Y-102988571D01*
X151353214Y-103024285D01*
X151424642Y-103060000D01*
X151496071Y-103131428D01*
X151531785Y-103238571D01*
X151531785Y-103417142D01*
X151531785Y-102667142D02*
X150781785Y-102667142D01*
X151138928Y-102667142D02*
X151138928Y-102238571D01*
X151531785Y-102238571D02*
X150781785Y-102238571D01*
X151138928Y-101631428D02*
X151174642Y-101524285D01*
X151210357Y-101488571D01*
X151281785Y-101452857D01*
X151388928Y-101452857D01*
X151460357Y-101488571D01*
X151496071Y-101524285D01*
X151531785Y-101595714D01*
X151531785Y-101881428D01*
X150781785Y-101881428D01*
X150781785Y-101631428D01*
X150817500Y-101560000D01*
X150853214Y-101524285D01*
X150924642Y-101488571D01*
X150996071Y-101488571D01*
X151067500Y-101524285D01*
X151103214Y-101560000D01*
X151138928Y-101631428D01*
X151138928Y-101881428D01*
X150781785Y-101202857D02*
X151531785Y-101024285D01*
X150996071Y-100881428D01*
X151531785Y-100738571D01*
X150781785Y-100560000D01*
X151531785Y-99702857D02*
X150781785Y-99702857D01*
X151531785Y-99274285D02*
X151103214Y-99595714D01*
X150781785Y-99274285D02*
X151210357Y-99702857D01*
X151531785Y-98631428D02*
X151138928Y-98631428D01*
X151067500Y-98667142D01*
X151031785Y-98738571D01*
X151031785Y-98881428D01*
X151067500Y-98952857D01*
X151496071Y-98631428D02*
X151531785Y-98702857D01*
X151531785Y-98881428D01*
X151496071Y-98952857D01*
X151424642Y-98988571D01*
X151353214Y-98988571D01*
X151281785Y-98952857D01*
X151246071Y-98881428D01*
X151246071Y-98702857D01*
X151210357Y-98631428D01*
X151531785Y-98274285D02*
X151031785Y-98274285D01*
X151174642Y-98274285D02*
X151103214Y-98238571D01*
X151067500Y-98202857D01*
X151031785Y-98131428D01*
X151031785Y-98060000D01*
X151531785Y-97702857D02*
X151496071Y-97774285D01*
X151424642Y-97810000D01*
X150781785Y-97810000D01*
X151496071Y-97452857D02*
X151531785Y-97381428D01*
X151531785Y-97238571D01*
X151496071Y-97167142D01*
X151424642Y-97131428D01*
X151388928Y-97131428D01*
X151317500Y-97167142D01*
X151281785Y-97238571D01*
X151281785Y-97345714D01*
X151246071Y-97417142D01*
X151174642Y-97452857D01*
X151138928Y-97452857D01*
X151067500Y-97417142D01*
X151031785Y-97345714D01*
X151031785Y-97238571D01*
X151067500Y-97167142D01*
X151531785Y-96810000D02*
X151031785Y-96810000D01*
X151174642Y-96810000D02*
X151103214Y-96774285D01*
X151067500Y-96738571D01*
X151031785Y-96667142D01*
X151031785Y-96595714D01*
X151031785Y-96024285D02*
X151531785Y-96024285D01*
X151031785Y-96345714D02*
X151424642Y-96345714D01*
X151496071Y-96310000D01*
X151531785Y-96238571D01*
X151531785Y-96131428D01*
X151496071Y-96060000D01*
X151460357Y-96024285D01*
X151531785Y-95667142D02*
X150781785Y-95667142D01*
X151531785Y-95345714D02*
X151138928Y-95345714D01*
X151067500Y-95381428D01*
X151031785Y-95452857D01*
X151031785Y-95560000D01*
X151067500Y-95631428D01*
X151103214Y-95667142D01*
X151496071Y-94702857D02*
X151531785Y-94774285D01*
X151531785Y-94917142D01*
X151496071Y-94988571D01*
X151424642Y-95024285D01*
X151138928Y-95024285D01*
X151067500Y-94988571D01*
X151031785Y-94917142D01*
X151031785Y-94774285D01*
X151067500Y-94702857D01*
X151138928Y-94667142D01*
X151210357Y-94667142D01*
X151281785Y-95024285D01*
X151989285Y-103060000D02*
X152739285Y-102881428D01*
X152203571Y-102738571D01*
X152739285Y-102595714D01*
X151989285Y-102417142D01*
X152739285Y-101810000D02*
X152346428Y-101810000D01*
X152275000Y-101845714D01*
X152239285Y-101917142D01*
X152239285Y-102060000D01*
X152275000Y-102131428D01*
X152703571Y-101810000D02*
X152739285Y-101881428D01*
X152739285Y-102060000D01*
X152703571Y-102131428D01*
X152632142Y-102167142D01*
X152560714Y-102167142D01*
X152489285Y-102131428D01*
X152453571Y-102060000D01*
X152453571Y-101881428D01*
X152417857Y-101810000D01*
X152739285Y-101452857D02*
X151989285Y-101452857D01*
X152739285Y-101131428D02*
X152346428Y-101131428D01*
X152275000Y-101167142D01*
X152239285Y-101238571D01*
X152239285Y-101345714D01*
X152275000Y-101417142D01*
X152310714Y-101452857D01*
X152739285Y-100667142D02*
X152703571Y-100738571D01*
X152632142Y-100774285D01*
X151989285Y-100774285D01*
X152739285Y-100381428D02*
X152239285Y-100381428D01*
X152310714Y-100381428D02*
X152275000Y-100345714D01*
X152239285Y-100274285D01*
X152239285Y-100167142D01*
X152275000Y-100095714D01*
X152346428Y-100060000D01*
X152739285Y-100060000D01*
X152346428Y-100060000D02*
X152275000Y-100024285D01*
X152239285Y-99952857D01*
X152239285Y-99845714D01*
X152275000Y-99774285D01*
X152346428Y-99738571D01*
X152739285Y-99738571D01*
X152739285Y-99274285D02*
X152703571Y-99345714D01*
X152667857Y-99381428D01*
X152596428Y-99417142D01*
X152382142Y-99417142D01*
X152310714Y-99381428D01*
X152275000Y-99345714D01*
X152239285Y-99274285D01*
X152239285Y-99167142D01*
X152275000Y-99095714D01*
X152310714Y-99060000D01*
X152382142Y-99024285D01*
X152596428Y-99024285D01*
X152667857Y-99060000D01*
X152703571Y-99095714D01*
X152739285Y-99167142D01*
X152739285Y-99274285D01*
X152739285Y-98381428D02*
X151989285Y-98381428D01*
X152703571Y-98381428D02*
X152739285Y-98452857D01*
X152739285Y-98595714D01*
X152703571Y-98667142D01*
X152667857Y-98702857D01*
X152596428Y-98738571D01*
X152382142Y-98738571D01*
X152310714Y-98702857D01*
X152275000Y-98667142D01*
X152239285Y-98595714D01*
X152239285Y-98452857D01*
X152275000Y-98381428D01*
X152239285Y-97702857D02*
X152739285Y-97702857D01*
X152239285Y-98024285D02*
X152632142Y-98024285D01*
X152703571Y-97988571D01*
X152739285Y-97917142D01*
X152739285Y-97810000D01*
X152703571Y-97738571D01*
X152667857Y-97702857D01*
X152739285Y-97238571D02*
X152703571Y-97310000D01*
X152632142Y-97345714D01*
X151989285Y-97345714D01*
X152739285Y-96381428D02*
X151989285Y-96381428D01*
X152739285Y-95917142D02*
X152703571Y-95988571D01*
X152667857Y-96024285D01*
X152596428Y-96060000D01*
X152382142Y-96060000D01*
X152310714Y-96024285D01*
X152275000Y-95988571D01*
X152239285Y-95917142D01*
X152239285Y-95810000D01*
X152275000Y-95738571D01*
X152310714Y-95702857D01*
X152382142Y-95667142D01*
X152596428Y-95667142D01*
X152667857Y-95702857D01*
X152703571Y-95738571D01*
X152739285Y-95810000D01*
X152739285Y-95917142D01*
X151989285Y-95452857D02*
X151989285Y-95024285D01*
X152739285Y-95238571D02*
X151989285Y-95238571D01*
X153196785Y-102881428D02*
X153196785Y-102417142D01*
X153482500Y-102667142D01*
X153482500Y-102560000D01*
X153518214Y-102488571D01*
X153553928Y-102452857D01*
X153625357Y-102417142D01*
X153803928Y-102417142D01*
X153875357Y-102452857D01*
X153911071Y-102488571D01*
X153946785Y-102560000D01*
X153946785Y-102774285D01*
X153911071Y-102845714D01*
X153875357Y-102881428D01*
X153661071Y-102095714D02*
X153661071Y-101524285D01*
X153946785Y-100810000D02*
X153946785Y-101167142D01*
X153196785Y-101167142D01*
X153553928Y-100560000D02*
X153553928Y-100310000D01*
X153946785Y-100202857D02*
X153946785Y-100560000D01*
X153196785Y-100560000D01*
X153196785Y-100202857D01*
X153946785Y-99881428D02*
X153196785Y-99881428D01*
X153196785Y-99702857D01*
X153232500Y-99595714D01*
X153303928Y-99524285D01*
X153375357Y-99488571D01*
X153518214Y-99452857D01*
X153625357Y-99452857D01*
X153768214Y-99488571D01*
X153839642Y-99524285D01*
X153911071Y-99595714D01*
X153946785Y-99702857D01*
X153946785Y-99881428D01*
X153661071Y-99131428D02*
X153661071Y-98560000D01*
X153553928Y-97952857D02*
X153589642Y-97845714D01*
X153625357Y-97810000D01*
X153696785Y-97774285D01*
X153803928Y-97774285D01*
X153875357Y-97810000D01*
X153911071Y-97845714D01*
X153946785Y-97917142D01*
X153946785Y-98202857D01*
X153196785Y-98202857D01*
X153196785Y-97952857D01*
X153232500Y-97881428D01*
X153268214Y-97845714D01*
X153339642Y-97810000D01*
X153411071Y-97810000D01*
X153482500Y-97845714D01*
X153518214Y-97881428D01*
X153553928Y-97952857D01*
X153553928Y-98202857D01*
X153946785Y-97345714D02*
X153911071Y-97417142D01*
X153875357Y-97452857D01*
X153803928Y-97488571D01*
X153589642Y-97488571D01*
X153518214Y-97452857D01*
X153482500Y-97417142D01*
X153446785Y-97345714D01*
X153446785Y-97238571D01*
X153482500Y-97167142D01*
X153518214Y-97131428D01*
X153589642Y-97095714D01*
X153803928Y-97095714D01*
X153875357Y-97131428D01*
X153911071Y-97167142D01*
X153946785Y-97238571D01*
X153946785Y-97345714D01*
X153946785Y-96452857D02*
X153553928Y-96452857D01*
X153482500Y-96488571D01*
X153446785Y-96560000D01*
X153446785Y-96702857D01*
X153482500Y-96774285D01*
X153911071Y-96452857D02*
X153946785Y-96524285D01*
X153946785Y-96702857D01*
X153911071Y-96774285D01*
X153839642Y-96810000D01*
X153768214Y-96810000D01*
X153696785Y-96774285D01*
X153661071Y-96702857D01*
X153661071Y-96524285D01*
X153625357Y-96452857D01*
X153946785Y-96095714D02*
X153446785Y-96095714D01*
X153589642Y-96095714D02*
X153518214Y-96060000D01*
X153482500Y-96024285D01*
X153446785Y-95952857D01*
X153446785Y-95881428D01*
X153946785Y-95310000D02*
X153196785Y-95310000D01*
X153911071Y-95310000D02*
X153946785Y-95381428D01*
X153946785Y-95524285D01*
X153911071Y-95595714D01*
X153875357Y-95631428D01*
X153803928Y-95667142D01*
X153589642Y-95667142D01*
X153518214Y-95631428D01*
X153482500Y-95595714D01*
X153446785Y-95524285D01*
X153446785Y-95381428D01*
X153482500Y-95310000D01*
X128143095Y-102370000D02*
X128047857Y-102322380D01*
X127905000Y-102322380D01*
X127762142Y-102370000D01*
X127666904Y-102465238D01*
X127619285Y-102560476D01*
X127571666Y-102750952D01*
X127571666Y-102893809D01*
X127619285Y-103084285D01*
X127666904Y-103179523D01*
X127762142Y-103274761D01*
X127905000Y-103322380D01*
X128000238Y-103322380D01*
X128143095Y-103274761D01*
X128190714Y-103227142D01*
X128190714Y-102893809D01*
X128000238Y-102893809D01*
X128619285Y-103322380D02*
X128619285Y-102322380D01*
X129190714Y-103322380D01*
X129190714Y-102322380D01*
X129666904Y-103322380D02*
X129666904Y-102322380D01*
X129905000Y-102322380D01*
X130047857Y-102370000D01*
X130143095Y-102465238D01*
X130190714Y-102560476D01*
X130238333Y-102750952D01*
X130238333Y-102893809D01*
X130190714Y-103084285D01*
X130143095Y-103179523D01*
X130047857Y-103274761D01*
X129905000Y-103322380D01*
X129666904Y-103322380D01*
X127936666Y-99782380D02*
X128555714Y-99782380D01*
X128222380Y-100163333D01*
X128365238Y-100163333D01*
X128460476Y-100210952D01*
X128508095Y-100258571D01*
X128555714Y-100353809D01*
X128555714Y-100591904D01*
X128508095Y-100687142D01*
X128460476Y-100734761D01*
X128365238Y-100782380D01*
X128079523Y-100782380D01*
X127984285Y-100734761D01*
X127936666Y-100687142D01*
X128555714Y-95702380D02*
X127984285Y-95702380D01*
X128270000Y-95702380D02*
X128270000Y-94702380D01*
X128174761Y-94845238D01*
X128079523Y-94940476D01*
X127984285Y-94988095D01*
X127984285Y-97337619D02*
X128031904Y-97290000D01*
X128127142Y-97242380D01*
X128365238Y-97242380D01*
X128460476Y-97290000D01*
X128508095Y-97337619D01*
X128555714Y-97432857D01*
X128555714Y-97528095D01*
X128508095Y-97670952D01*
X127936666Y-98242380D01*
X128555714Y-98242380D01*
%TO.C,D3*%
X147216904Y-96972380D02*
X147216904Y-95972380D01*
X147455000Y-95972380D01*
X147597857Y-96020000D01*
X147693095Y-96115238D01*
X147740714Y-96210476D01*
X147788333Y-96400952D01*
X147788333Y-96543809D01*
X147740714Y-96734285D01*
X147693095Y-96829523D01*
X147597857Y-96924761D01*
X147455000Y-96972380D01*
X147216904Y-96972380D01*
X148121666Y-95972380D02*
X148740714Y-95972380D01*
X148407380Y-96353333D01*
X148550238Y-96353333D01*
X148645476Y-96400952D01*
X148693095Y-96448571D01*
X148740714Y-96543809D01*
X148740714Y-96781904D01*
X148693095Y-96877142D01*
X148645476Y-96924761D01*
X148550238Y-96972380D01*
X148264523Y-96972380D01*
X148169285Y-96924761D01*
X148121666Y-96877142D01*
%TO.C,D2*%
X140866904Y-96972380D02*
X140866904Y-95972380D01*
X141105000Y-95972380D01*
X141247857Y-96020000D01*
X141343095Y-96115238D01*
X141390714Y-96210476D01*
X141438333Y-96400952D01*
X141438333Y-96543809D01*
X141390714Y-96734285D01*
X141343095Y-96829523D01*
X141247857Y-96924761D01*
X141105000Y-96972380D01*
X140866904Y-96972380D01*
X141819285Y-96067619D02*
X141866904Y-96020000D01*
X141962142Y-95972380D01*
X142200238Y-95972380D01*
X142295476Y-96020000D01*
X142343095Y-96067619D01*
X142390714Y-96162857D01*
X142390714Y-96258095D01*
X142343095Y-96400952D01*
X141771666Y-96972380D01*
X142390714Y-96972380D01*
%TO.C,R3*%
X145248333Y-103322380D02*
X144915000Y-102846190D01*
X144676904Y-103322380D02*
X144676904Y-102322380D01*
X145057857Y-102322380D01*
X145153095Y-102370000D01*
X145200714Y-102417619D01*
X145248333Y-102512857D01*
X145248333Y-102655714D01*
X145200714Y-102750952D01*
X145153095Y-102798571D01*
X145057857Y-102846190D01*
X144676904Y-102846190D01*
X145581666Y-102322380D02*
X146200714Y-102322380D01*
X145867380Y-102703333D01*
X146010238Y-102703333D01*
X146105476Y-102750952D01*
X146153095Y-102798571D01*
X146200714Y-102893809D01*
X146200714Y-103131904D01*
X146153095Y-103227142D01*
X146105476Y-103274761D01*
X146010238Y-103322380D01*
X145724523Y-103322380D01*
X145629285Y-103274761D01*
X145581666Y-103227142D01*
%TO.C,D1*%
X135151904Y-96972380D02*
X135151904Y-95972380D01*
X135390000Y-95972380D01*
X135532857Y-96020000D01*
X135628095Y-96115238D01*
X135675714Y-96210476D01*
X135723333Y-96400952D01*
X135723333Y-96543809D01*
X135675714Y-96734285D01*
X135628095Y-96829523D01*
X135532857Y-96924761D01*
X135390000Y-96972380D01*
X135151904Y-96972380D01*
X136675714Y-96972380D02*
X136104285Y-96972380D01*
X136390000Y-96972380D02*
X136390000Y-95972380D01*
X136294761Y-96115238D01*
X136199523Y-96210476D01*
X136104285Y-96258095D01*
%TO.C,R1*%
X138898333Y-91257380D02*
X138565000Y-90781190D01*
X138326904Y-91257380D02*
X138326904Y-90257380D01*
X138707857Y-90257380D01*
X138803095Y-90305000D01*
X138850714Y-90352619D01*
X138898333Y-90447857D01*
X138898333Y-90590714D01*
X138850714Y-90685952D01*
X138803095Y-90733571D01*
X138707857Y-90781190D01*
X138326904Y-90781190D01*
X139850714Y-91257380D02*
X139279285Y-91257380D01*
X139565000Y-91257380D02*
X139565000Y-90257380D01*
X139469761Y-90400238D01*
X139374523Y-90495476D01*
X139279285Y-90543095D01*
%TO.C,R2*%
X141438333Y-93797380D02*
X141105000Y-93321190D01*
X140866904Y-93797380D02*
X140866904Y-92797380D01*
X141247857Y-92797380D01*
X141343095Y-92845000D01*
X141390714Y-92892619D01*
X141438333Y-92987857D01*
X141438333Y-93130714D01*
X141390714Y-93225952D01*
X141343095Y-93273571D01*
X141247857Y-93321190D01*
X140866904Y-93321190D01*
X141819285Y-92892619D02*
X141866904Y-92845000D01*
X141962142Y-92797380D01*
X142200238Y-92797380D01*
X142295476Y-92845000D01*
X142343095Y-92892619D01*
X142390714Y-92987857D01*
X142390714Y-93083095D01*
X142343095Y-93225952D01*
X141771666Y-93797380D01*
X142390714Y-93797380D01*
D11*
%TO.C,D3*%
X147280000Y-97980000D02*
X147280000Y-97824000D01*
X147280000Y-100296000D02*
X147280000Y-100140000D01*
X146760961Y-97980000D02*
G75*
G03*
X144678870Y-97980163I-1040961J-1080000D01*
G01*
X147280000Y-97824484D02*
G75*
G03*
X144047665Y-97981392I-1560000J-1235516D01*
G01*
X144047665Y-100138608D02*
G75*
G03*
X147280000Y-100295516I1672335J1078608D01*
G01*
X144678870Y-100139837D02*
G75*
G03*
X146760961Y-100140000I1041130J1079837D01*
G01*
%TO.C,D2*%
X140930000Y-97980000D02*
X140930000Y-97824000D01*
X140930000Y-100296000D02*
X140930000Y-100140000D01*
X140410961Y-97980000D02*
G75*
G03*
X138328870Y-97980163I-1040961J-1080000D01*
G01*
X137697665Y-100138608D02*
G75*
G03*
X140930000Y-100295516I1672335J1078608D01*
G01*
X138328870Y-100139837D02*
G75*
G03*
X140410961Y-100140000I1041130J1079837D01*
G01*
X140930000Y-97824484D02*
G75*
G03*
X137697665Y-97981392I-1560000J-1235516D01*
G01*
%TO.C,R3*%
X139050000Y-101950000D02*
X142890000Y-101950000D01*
X139050000Y-103790000D02*
X142890000Y-103790000D01*
%TO.C,D1*%
X134910000Y-97980000D02*
X134910000Y-97824000D01*
X134910000Y-100296000D02*
X134910000Y-100140000D01*
X134910000Y-97824484D02*
G75*
G03*
X131677665Y-97981392I-1560000J-1235516D01*
G01*
X131677665Y-100138608D02*
G75*
G03*
X134910000Y-100295516I1672335J1078608D01*
G01*
X134390961Y-97980000D02*
G75*
G03*
X132308870Y-97980163I-1040961J-1080000D01*
G01*
X132308870Y-100139837D02*
G75*
G03*
X134390961Y-100140000I1041130J1079837D01*
G01*
%TO.C,R1*%
X132700000Y-91725000D02*
X136540000Y-91725000D01*
X132700000Y-89885000D02*
X136540000Y-89885000D01*
%TO.C,R2*%
X135240000Y-92425000D02*
X139080000Y-92425000D01*
X135240000Y-94265000D02*
X139080000Y-94265000D01*
%TD*%
M02*
