%TF.GenerationSoftware,KiCad,Pcbnew,6.0.5-2.fc35*%
%TF.CreationDate,2022-09-23T18:33:46+02:00*%
%TF.ProjectId,LED-Board,4c45442d-426f-4617-9264-2e6b69636164,rev?*%
%TF.SameCoordinates,Original*%
%TF.FileFunction,Copper,L2,Bot*%
%TF.FilePolarity,Positive*%
%FSLAX46Y46*%
G04 Gerber Fmt 4.6, Leading zero omitted, Abs format (unit mm)*
G04 Created by KiCad (PCBNEW 6.0.5-2.fc35) date 2022-09-23 18:33:46*
%MOMM*%
%LPD*%
G01*
G04 APERTURE LIST*
%TA.AperFunction,ComponentPad*%
%ADD10R,1.800000X1.800000*%
%TD*%
%TA.AperFunction,ComponentPad*%
%ADD11C,1.800000*%
%TD*%
%TA.AperFunction,ComponentPad*%
%ADD12C,1.400000*%
%TD*%
%TA.AperFunction,ComponentPad*%
%ADD13O,1.400000X1.400000*%
%TD*%
%TA.AperFunction,ComponentPad*%
%ADD14R,1.700000X1.700000*%
%TD*%
%TA.AperFunction,ComponentPad*%
%ADD15O,1.700000X1.700000*%
%TD*%
%TA.AperFunction,Conductor*%
%ADD16C,0.250000*%
%TD*%
G04 APERTURE END LIST*
D10*
%TO.P,D3,1,K*%
%TO.N,GND*%
X146990000Y-99060000D03*
D11*
%TO.P,D3,2,A*%
%TO.N,Net-(D3-Pad2)*%
X144450000Y-99060000D03*
%TD*%
D10*
%TO.P,D2,1,K*%
%TO.N,GND*%
X140640000Y-99060000D03*
D11*
%TO.P,D2,2,A*%
%TO.N,Net-(D2-Pad2)*%
X138100000Y-99060000D03*
%TD*%
D12*
%TO.P,R3,1*%
%TO.N,LED_3*%
X138430000Y-102870000D03*
D13*
%TO.P,R3,2*%
%TO.N,Net-(D3-Pad2)*%
X143510000Y-102870000D03*
%TD*%
D10*
%TO.P,D1,1,K*%
%TO.N,GND*%
X134620000Y-99060000D03*
D11*
%TO.P,D1,2,A*%
%TO.N,Net-(D1-Pad2)*%
X132080000Y-99060000D03*
%TD*%
D12*
%TO.P,R1,1*%
%TO.N,LED_1*%
X132080000Y-90805000D03*
D13*
%TO.P,R1,2*%
%TO.N,Net-(D1-Pad2)*%
X137160000Y-90805000D03*
%TD*%
D12*
%TO.P,R2,1*%
%TO.N,LED_2*%
X134620000Y-93345000D03*
D13*
%TO.P,R2,2*%
%TO.N,Net-(D2-Pad2)*%
X139700000Y-93345000D03*
%TD*%
D14*
%TO.P,J1,1,Pin_1*%
%TO.N,GND*%
X126365000Y-102870000D03*
D15*
%TO.P,J1,2,Pin_2*%
%TO.N,LED_3*%
X126365000Y-100330000D03*
%TO.P,J1,3,Pin_3*%
%TO.N,LED_2*%
X126365000Y-97790000D03*
%TO.P,J1,4,Pin_4*%
%TO.N,LED_1*%
X126365000Y-95250000D03*
%TD*%
D16*
%TO.N,Net-(D1-Pad2)*%
X132080000Y-99060000D02*
X132080000Y-97155000D01*
X135890000Y-96520000D02*
X137160000Y-95250000D01*
X132080000Y-97155000D02*
X132715000Y-96520000D01*
X132715000Y-96520000D02*
X135890000Y-96520000D01*
X137160000Y-95250000D02*
X137160000Y-90805000D01*
%TO.N,Net-(D2-Pad2)*%
X138100000Y-97485000D02*
X139700000Y-95885000D01*
X139700000Y-95885000D02*
X139700000Y-93345000D01*
X138100000Y-99060000D02*
X138100000Y-97485000D01*
%TO.N,Net-(D3-Pad2)*%
X144450000Y-101930000D02*
X143510000Y-102870000D01*
X144450000Y-99060000D02*
X144450000Y-101930000D01*
%TO.N,LED_3*%
X127635000Y-100330000D02*
X130175000Y-102870000D01*
X125730000Y-100330000D02*
X127635000Y-100330000D01*
X130175000Y-102870000D02*
X138430000Y-102870000D01*
%TO.N,LED_2*%
X126365000Y-97790000D02*
X128905000Y-97790000D01*
X133350000Y-93345000D02*
X134620000Y-93345000D01*
X128905000Y-97790000D02*
X133350000Y-93345000D01*
%TO.N,LED_1*%
X125730000Y-95250000D02*
X127635000Y-95250000D01*
X127635000Y-95250000D02*
X132080000Y-90805000D01*
%TD*%
%TA.AperFunction,Conductor*%
%TO.N,GND*%
G36*
X136813580Y-89428502D02*
G01*
X136860073Y-89482158D01*
X136870177Y-89552432D01*
X136840683Y-89617012D01*
X136778070Y-89656207D01*
X136750400Y-89663621D01*
X136750398Y-89663622D01*
X136745090Y-89665044D01*
X136740109Y-89667366D01*
X136740108Y-89667367D01*
X136558423Y-89752088D01*
X136558420Y-89752090D01*
X136553442Y-89754411D01*
X136380224Y-89875699D01*
X136230699Y-90025224D01*
X136109411Y-90198442D01*
X136107090Y-90203420D01*
X136107088Y-90203423D01*
X136097843Y-90223250D01*
X136020044Y-90390090D01*
X135965314Y-90594345D01*
X135946884Y-90805000D01*
X135965314Y-91015655D01*
X135966738Y-91020968D01*
X135966738Y-91020970D01*
X135997705Y-91136538D01*
X136020044Y-91219910D01*
X136022366Y-91224891D01*
X136022367Y-91224892D01*
X136053185Y-91290980D01*
X136109411Y-91411558D01*
X136230699Y-91584776D01*
X136380224Y-91734301D01*
X136384736Y-91737460D01*
X136472770Y-91799102D01*
X136517099Y-91854559D01*
X136526500Y-91902315D01*
X136526500Y-94935405D01*
X136506498Y-95003526D01*
X136489595Y-95024500D01*
X135664500Y-95849595D01*
X135602188Y-95883621D01*
X135575405Y-95886500D01*
X132793768Y-95886500D01*
X132782585Y-95885973D01*
X132775092Y-95884298D01*
X132767166Y-95884547D01*
X132767165Y-95884547D01*
X132707002Y-95886438D01*
X132703044Y-95886500D01*
X132675144Y-95886500D01*
X132671154Y-95887004D01*
X132659320Y-95887936D01*
X132615111Y-95889326D01*
X132607495Y-95891539D01*
X132607493Y-95891539D01*
X132595652Y-95894979D01*
X132576293Y-95898988D01*
X132574983Y-95899154D01*
X132556203Y-95901526D01*
X132548837Y-95904442D01*
X132548831Y-95904444D01*
X132515098Y-95917800D01*
X132503868Y-95921645D01*
X132469017Y-95931770D01*
X132461407Y-95933981D01*
X132454584Y-95938016D01*
X132443966Y-95944295D01*
X132426213Y-95952992D01*
X132418568Y-95956019D01*
X132407383Y-95960448D01*
X132382875Y-95978254D01*
X132371612Y-95986437D01*
X132361695Y-95992951D01*
X132323638Y-96015458D01*
X132309317Y-96029779D01*
X132294284Y-96042619D01*
X132277893Y-96054528D01*
X132255386Y-96081734D01*
X132249712Y-96088593D01*
X132241722Y-96097374D01*
X131687742Y-96651353D01*
X131679463Y-96658887D01*
X131672982Y-96663000D01*
X131626357Y-96712651D01*
X131623602Y-96715493D01*
X131603865Y-96735230D01*
X131601385Y-96738427D01*
X131593682Y-96747447D01*
X131563414Y-96779679D01*
X131559595Y-96786625D01*
X131559593Y-96786628D01*
X131553652Y-96797434D01*
X131542801Y-96813953D01*
X131530386Y-96829959D01*
X131527241Y-96837228D01*
X131527238Y-96837232D01*
X131512826Y-96870537D01*
X131507609Y-96881187D01*
X131486305Y-96919940D01*
X131484334Y-96927615D01*
X131484334Y-96927616D01*
X131481267Y-96939562D01*
X131474863Y-96958266D01*
X131466819Y-96976855D01*
X131465580Y-96984678D01*
X131465577Y-96984688D01*
X131459901Y-97020524D01*
X131457495Y-97032144D01*
X131454431Y-97044079D01*
X131446500Y-97074970D01*
X131446500Y-97095224D01*
X131444949Y-97114934D01*
X131441780Y-97134943D01*
X131442526Y-97142835D01*
X131445941Y-97178961D01*
X131446500Y-97190819D01*
X131446500Y-97725319D01*
X131426498Y-97793440D01*
X131378679Y-97837083D01*
X131326872Y-97864052D01*
X131322737Y-97867157D01*
X131322734Y-97867159D01*
X131172824Y-97979715D01*
X131141655Y-98003117D01*
X130981639Y-98170564D01*
X130851119Y-98361899D01*
X130753602Y-98571981D01*
X130691707Y-98795169D01*
X130667095Y-99025469D01*
X130667392Y-99030622D01*
X130667392Y-99030625D01*
X130677031Y-99197800D01*
X130680427Y-99256697D01*
X130681564Y-99261743D01*
X130681565Y-99261749D01*
X130696394Y-99327548D01*
X130731346Y-99482642D01*
X130733288Y-99487424D01*
X130733289Y-99487428D01*
X130810933Y-99678642D01*
X130818484Y-99697237D01*
X130939501Y-99894719D01*
X131091147Y-100069784D01*
X131269349Y-100217730D01*
X131469322Y-100334584D01*
X131685694Y-100417209D01*
X131690760Y-100418240D01*
X131690761Y-100418240D01*
X131743846Y-100429040D01*
X131912656Y-100463385D01*
X132043324Y-100468176D01*
X132138949Y-100471683D01*
X132138953Y-100471683D01*
X132144113Y-100471872D01*
X132149233Y-100471216D01*
X132149235Y-100471216D01*
X132248668Y-100458478D01*
X132373847Y-100442442D01*
X132378795Y-100440957D01*
X132378802Y-100440956D01*
X132590747Y-100377369D01*
X132595690Y-100375886D01*
X132676281Y-100336405D01*
X132799049Y-100276262D01*
X132799052Y-100276260D01*
X132803684Y-100273991D01*
X132992243Y-100139494D01*
X132995898Y-100135852D01*
X132995906Y-100135845D01*
X133037697Y-100094199D01*
X133100068Y-100060282D01*
X133170875Y-100065470D01*
X133227637Y-100108116D01*
X133244619Y-100139218D01*
X133266677Y-100198056D01*
X133275214Y-100213649D01*
X133351715Y-100315724D01*
X133364276Y-100328285D01*
X133466351Y-100404786D01*
X133481946Y-100413324D01*
X133602394Y-100458478D01*
X133617649Y-100462105D01*
X133668514Y-100467631D01*
X133675328Y-100468000D01*
X134347885Y-100468000D01*
X134363124Y-100463525D01*
X134364329Y-100462135D01*
X134366000Y-100454452D01*
X134366000Y-100449884D01*
X134874000Y-100449884D01*
X134878475Y-100465123D01*
X134879865Y-100466328D01*
X134887548Y-100467999D01*
X135564669Y-100467999D01*
X135571490Y-100467629D01*
X135622352Y-100462105D01*
X135637604Y-100458479D01*
X135758054Y-100413324D01*
X135773649Y-100404786D01*
X135875724Y-100328285D01*
X135888285Y-100315724D01*
X135964786Y-100213649D01*
X135973324Y-100198054D01*
X136018478Y-100077606D01*
X136022105Y-100062351D01*
X136027631Y-100011486D01*
X136028000Y-100004672D01*
X136028000Y-99332115D01*
X136023525Y-99316876D01*
X136022135Y-99315671D01*
X136014452Y-99314000D01*
X134892115Y-99314000D01*
X134876876Y-99318475D01*
X134875671Y-99319865D01*
X134874000Y-99327548D01*
X134874000Y-100449884D01*
X134366000Y-100449884D01*
X134366000Y-99025469D01*
X136687095Y-99025469D01*
X136687392Y-99030622D01*
X136687392Y-99030625D01*
X136697031Y-99197800D01*
X136700427Y-99256697D01*
X136701564Y-99261743D01*
X136701565Y-99261749D01*
X136716394Y-99327548D01*
X136751346Y-99482642D01*
X136753288Y-99487424D01*
X136753289Y-99487428D01*
X136830933Y-99678642D01*
X136838484Y-99697237D01*
X136959501Y-99894719D01*
X137111147Y-100069784D01*
X137289349Y-100217730D01*
X137489322Y-100334584D01*
X137705694Y-100417209D01*
X137710760Y-100418240D01*
X137710761Y-100418240D01*
X137763846Y-100429040D01*
X137932656Y-100463385D01*
X138063324Y-100468176D01*
X138158949Y-100471683D01*
X138158953Y-100471683D01*
X138164113Y-100471872D01*
X138169233Y-100471216D01*
X138169235Y-100471216D01*
X138268668Y-100458478D01*
X138393847Y-100442442D01*
X138398795Y-100440957D01*
X138398802Y-100440956D01*
X138610747Y-100377369D01*
X138615690Y-100375886D01*
X138696281Y-100336405D01*
X138819049Y-100276262D01*
X138819052Y-100276260D01*
X138823684Y-100273991D01*
X139012243Y-100139494D01*
X139015898Y-100135852D01*
X139015906Y-100135845D01*
X139057697Y-100094199D01*
X139120068Y-100060282D01*
X139190875Y-100065470D01*
X139247637Y-100108116D01*
X139264619Y-100139218D01*
X139286677Y-100198056D01*
X139295214Y-100213649D01*
X139371715Y-100315724D01*
X139384276Y-100328285D01*
X139486351Y-100404786D01*
X139501946Y-100413324D01*
X139622394Y-100458478D01*
X139637649Y-100462105D01*
X139688514Y-100467631D01*
X139695328Y-100468000D01*
X140367885Y-100468000D01*
X140383124Y-100463525D01*
X140384329Y-100462135D01*
X140386000Y-100454452D01*
X140386000Y-100449884D01*
X140894000Y-100449884D01*
X140898475Y-100465123D01*
X140899865Y-100466328D01*
X140907548Y-100467999D01*
X141584669Y-100467999D01*
X141591490Y-100467629D01*
X141642352Y-100462105D01*
X141657604Y-100458479D01*
X141778054Y-100413324D01*
X141793649Y-100404786D01*
X141895724Y-100328285D01*
X141908285Y-100315724D01*
X141984786Y-100213649D01*
X141993324Y-100198054D01*
X142038478Y-100077606D01*
X142042105Y-100062351D01*
X142047631Y-100011486D01*
X142048000Y-100004672D01*
X142048000Y-99332115D01*
X142043525Y-99316876D01*
X142042135Y-99315671D01*
X142034452Y-99314000D01*
X140912115Y-99314000D01*
X140896876Y-99318475D01*
X140895671Y-99319865D01*
X140894000Y-99327548D01*
X140894000Y-100449884D01*
X140386000Y-100449884D01*
X140386000Y-98787885D01*
X140894000Y-98787885D01*
X140898475Y-98803124D01*
X140899865Y-98804329D01*
X140907548Y-98806000D01*
X142029884Y-98806000D01*
X142045123Y-98801525D01*
X142046328Y-98800135D01*
X142047999Y-98792452D01*
X142047999Y-98115331D01*
X142047629Y-98108510D01*
X142042105Y-98057648D01*
X142038479Y-98042396D01*
X141993324Y-97921946D01*
X141984786Y-97906351D01*
X141908285Y-97804276D01*
X141895724Y-97791715D01*
X141793649Y-97715214D01*
X141778054Y-97706676D01*
X141657606Y-97661522D01*
X141642351Y-97657895D01*
X141591486Y-97652369D01*
X141584672Y-97652000D01*
X140912115Y-97652000D01*
X140896876Y-97656475D01*
X140895671Y-97657865D01*
X140894000Y-97665548D01*
X140894000Y-98787885D01*
X140386000Y-98787885D01*
X140386000Y-97670116D01*
X140381525Y-97654877D01*
X140380135Y-97653672D01*
X140372452Y-97652001D01*
X139695331Y-97652001D01*
X139688510Y-97652371D01*
X139637648Y-97657895D01*
X139622396Y-97661521D01*
X139501946Y-97706676D01*
X139486351Y-97715214D01*
X139384276Y-97791715D01*
X139371715Y-97804276D01*
X139295214Y-97906351D01*
X139286675Y-97921948D01*
X139265934Y-97977275D01*
X139223293Y-98034040D01*
X139156731Y-98058740D01*
X139087383Y-98043533D01*
X139064388Y-98026909D01*
X139063887Y-98026358D01*
X139030527Y-98000012D01*
X138886178Y-97886012D01*
X138886175Y-97886010D01*
X138882123Y-97882810D01*
X138877600Y-97880313D01*
X138845767Y-97862740D01*
X138795797Y-97812307D01*
X138781026Y-97742864D01*
X138806143Y-97676459D01*
X138817567Y-97663337D01*
X140092247Y-96388657D01*
X140100537Y-96381113D01*
X140107018Y-96377000D01*
X140153659Y-96327332D01*
X140156413Y-96324491D01*
X140176135Y-96304769D01*
X140178619Y-96301567D01*
X140186317Y-96292555D01*
X140211161Y-96266098D01*
X140216586Y-96260321D01*
X140226347Y-96242566D01*
X140237198Y-96226047D01*
X140249614Y-96210041D01*
X140267174Y-96169463D01*
X140272391Y-96158813D01*
X140293695Y-96120060D01*
X140298733Y-96100437D01*
X140305137Y-96081734D01*
X140310033Y-96070420D01*
X140310033Y-96070419D01*
X140313181Y-96063145D01*
X140314420Y-96055322D01*
X140314423Y-96055312D01*
X140320099Y-96019476D01*
X140322505Y-96007856D01*
X140331528Y-95972711D01*
X140331528Y-95972710D01*
X140333500Y-95965030D01*
X140333500Y-95944776D01*
X140335051Y-95925065D01*
X140336980Y-95912886D01*
X140338220Y-95905057D01*
X140334059Y-95861038D01*
X140333500Y-95849181D01*
X140333500Y-94442315D01*
X140353502Y-94374194D01*
X140387230Y-94339102D01*
X140475264Y-94277460D01*
X140479776Y-94274301D01*
X140629301Y-94124776D01*
X140750589Y-93951558D01*
X140760101Y-93931161D01*
X140837633Y-93764892D01*
X140837634Y-93764891D01*
X140839956Y-93759910D01*
X140894686Y-93555655D01*
X140913116Y-93345000D01*
X140894686Y-93134345D01*
X140861697Y-93011229D01*
X140841379Y-92935400D01*
X140841378Y-92935398D01*
X140839956Y-92930090D01*
X140814564Y-92875637D01*
X140752912Y-92743423D01*
X140752910Y-92743420D01*
X140750589Y-92738442D01*
X140629301Y-92565224D01*
X140479776Y-92415699D01*
X140306558Y-92294411D01*
X140301580Y-92292090D01*
X140301577Y-92292088D01*
X140119892Y-92207367D01*
X140119891Y-92207366D01*
X140114910Y-92205044D01*
X140109602Y-92203622D01*
X140109600Y-92203621D01*
X139915970Y-92151738D01*
X139915968Y-92151738D01*
X139910655Y-92150314D01*
X139700000Y-92131884D01*
X139489345Y-92150314D01*
X139484032Y-92151738D01*
X139484030Y-92151738D01*
X139290400Y-92203621D01*
X139290398Y-92203622D01*
X139285090Y-92205044D01*
X139280109Y-92207366D01*
X139280108Y-92207367D01*
X139098423Y-92292088D01*
X139098420Y-92292090D01*
X139093442Y-92294411D01*
X138920224Y-92415699D01*
X138770699Y-92565224D01*
X138649411Y-92738442D01*
X138647090Y-92743420D01*
X138647088Y-92743423D01*
X138585436Y-92875637D01*
X138560044Y-92930090D01*
X138558622Y-92935398D01*
X138558621Y-92935400D01*
X138538303Y-93011229D01*
X138505314Y-93134345D01*
X138486884Y-93345000D01*
X138505314Y-93555655D01*
X138560044Y-93759910D01*
X138562366Y-93764891D01*
X138562367Y-93764892D01*
X138639900Y-93931161D01*
X138649411Y-93951558D01*
X138770699Y-94124776D01*
X138920224Y-94274301D01*
X138924736Y-94277460D01*
X139012770Y-94339102D01*
X139057099Y-94394559D01*
X139066500Y-94442315D01*
X139066500Y-95570406D01*
X139046498Y-95638527D01*
X139029595Y-95659501D01*
X138364604Y-96324491D01*
X137707747Y-96981348D01*
X137699461Y-96988888D01*
X137692982Y-96993000D01*
X137687557Y-96998777D01*
X137646357Y-97042651D01*
X137643602Y-97045493D01*
X137623865Y-97065230D01*
X137621385Y-97068427D01*
X137613682Y-97077447D01*
X137583414Y-97109679D01*
X137579595Y-97116625D01*
X137579593Y-97116628D01*
X137573652Y-97127434D01*
X137562801Y-97143953D01*
X137550386Y-97159959D01*
X137547241Y-97167228D01*
X137547238Y-97167232D01*
X137532826Y-97200537D01*
X137527609Y-97211187D01*
X137506305Y-97249940D01*
X137504334Y-97257615D01*
X137504334Y-97257616D01*
X137501267Y-97269562D01*
X137494863Y-97288266D01*
X137486819Y-97306855D01*
X137485580Y-97314678D01*
X137485577Y-97314688D01*
X137479901Y-97350524D01*
X137477495Y-97362144D01*
X137466500Y-97404970D01*
X137466500Y-97425224D01*
X137464949Y-97444934D01*
X137461780Y-97464943D01*
X137462526Y-97472835D01*
X137465941Y-97508961D01*
X137466500Y-97520819D01*
X137466500Y-97725319D01*
X137446498Y-97793440D01*
X137398679Y-97837083D01*
X137346872Y-97864052D01*
X137342737Y-97867157D01*
X137342734Y-97867159D01*
X137192824Y-97979715D01*
X137161655Y-98003117D01*
X137001639Y-98170564D01*
X136871119Y-98361899D01*
X136773602Y-98571981D01*
X136711707Y-98795169D01*
X136687095Y-99025469D01*
X134366000Y-99025469D01*
X134366000Y-98787885D01*
X134874000Y-98787885D01*
X134878475Y-98803124D01*
X134879865Y-98804329D01*
X134887548Y-98806000D01*
X136009884Y-98806000D01*
X136025123Y-98801525D01*
X136026328Y-98800135D01*
X136027999Y-98792452D01*
X136027999Y-98115331D01*
X136027629Y-98108510D01*
X136022105Y-98057648D01*
X136018479Y-98042396D01*
X135973324Y-97921946D01*
X135964786Y-97906351D01*
X135888285Y-97804276D01*
X135875724Y-97791715D01*
X135773649Y-97715214D01*
X135758054Y-97706676D01*
X135637606Y-97661522D01*
X135622351Y-97657895D01*
X135571486Y-97652369D01*
X135564672Y-97652000D01*
X134892115Y-97652000D01*
X134876876Y-97656475D01*
X134875671Y-97657865D01*
X134874000Y-97665548D01*
X134874000Y-98787885D01*
X134366000Y-98787885D01*
X134366000Y-97670116D01*
X134361525Y-97654877D01*
X134360135Y-97653672D01*
X134352452Y-97652001D01*
X133675331Y-97652001D01*
X133668510Y-97652371D01*
X133617648Y-97657895D01*
X133602396Y-97661521D01*
X133481946Y-97706676D01*
X133466351Y-97715214D01*
X133364276Y-97791715D01*
X133351715Y-97804276D01*
X133275214Y-97906351D01*
X133266675Y-97921948D01*
X133245934Y-97977275D01*
X133203293Y-98034040D01*
X133136731Y-98058740D01*
X133067383Y-98043533D01*
X133044388Y-98026909D01*
X133043887Y-98026358D01*
X133010527Y-98000012D01*
X132866178Y-97886012D01*
X132866175Y-97886010D01*
X132862123Y-97882810D01*
X132778607Y-97836707D01*
X132728636Y-97786274D01*
X132713500Y-97726398D01*
X132713500Y-97469594D01*
X132733502Y-97401473D01*
X132750405Y-97380499D01*
X132940499Y-97190405D01*
X133002811Y-97156379D01*
X133029594Y-97153500D01*
X135811233Y-97153500D01*
X135822416Y-97154027D01*
X135829909Y-97155702D01*
X135837835Y-97155453D01*
X135837836Y-97155453D01*
X135897986Y-97153562D01*
X135901945Y-97153500D01*
X135929856Y-97153500D01*
X135933791Y-97153003D01*
X135933856Y-97152995D01*
X135945693Y-97152062D01*
X135977951Y-97151048D01*
X135981970Y-97150922D01*
X135989889Y-97150673D01*
X136009343Y-97145021D01*
X136028700Y-97141013D01*
X136040930Y-97139468D01*
X136040931Y-97139468D01*
X136048797Y-97138474D01*
X136056168Y-97135555D01*
X136056170Y-97135555D01*
X136089912Y-97122196D01*
X136101142Y-97118351D01*
X136135983Y-97108229D01*
X136135984Y-97108229D01*
X136143593Y-97106018D01*
X136150412Y-97101985D01*
X136150417Y-97101983D01*
X136161028Y-97095707D01*
X136178776Y-97087012D01*
X136197617Y-97079552D01*
X136233387Y-97053564D01*
X136243307Y-97047048D01*
X136274535Y-97028580D01*
X136274538Y-97028578D01*
X136281362Y-97024542D01*
X136295683Y-97010221D01*
X136310717Y-96997380D01*
X136327107Y-96985472D01*
X136355298Y-96951395D01*
X136363288Y-96942616D01*
X137552247Y-95753657D01*
X137560537Y-95746113D01*
X137567018Y-95742000D01*
X137613659Y-95692332D01*
X137616413Y-95689491D01*
X137636134Y-95669770D01*
X137638612Y-95666575D01*
X137646318Y-95657553D01*
X137671158Y-95631101D01*
X137676586Y-95625321D01*
X137686346Y-95607568D01*
X137697199Y-95591045D01*
X137704753Y-95581306D01*
X137709613Y-95575041D01*
X137727176Y-95534457D01*
X137732383Y-95523827D01*
X137753695Y-95485060D01*
X137755666Y-95477383D01*
X137755668Y-95477378D01*
X137758732Y-95465442D01*
X137765138Y-95446730D01*
X137770033Y-95435419D01*
X137773181Y-95428145D01*
X137774421Y-95420317D01*
X137774423Y-95420310D01*
X137780099Y-95384476D01*
X137782505Y-95372856D01*
X137791528Y-95337711D01*
X137791528Y-95337710D01*
X137793500Y-95330030D01*
X137793500Y-95309776D01*
X137795051Y-95290065D01*
X137796980Y-95277886D01*
X137798220Y-95270057D01*
X137794059Y-95226038D01*
X137793500Y-95214181D01*
X137793500Y-91902315D01*
X137813502Y-91834194D01*
X137847230Y-91799102D01*
X137935264Y-91737460D01*
X137939776Y-91734301D01*
X138089301Y-91584776D01*
X138115293Y-91547655D01*
X150639858Y-91547655D01*
X150675104Y-91806638D01*
X150676412Y-91811124D01*
X150676412Y-91811126D01*
X150690049Y-91857912D01*
X150748243Y-92057567D01*
X150857668Y-92294928D01*
X150860231Y-92298837D01*
X150998410Y-92509596D01*
X150998414Y-92509601D01*
X151000976Y-92513509D01*
X151033334Y-92549763D01*
X151169300Y-92702099D01*
X151175018Y-92708506D01*
X151375970Y-92875637D01*
X151379973Y-92878066D01*
X151595422Y-93008804D01*
X151595426Y-93008806D01*
X151599419Y-93011229D01*
X151840455Y-93112303D01*
X152093783Y-93176641D01*
X152098434Y-93177109D01*
X152098438Y-93177110D01*
X152291308Y-93196531D01*
X152310867Y-93198500D01*
X152466354Y-93198500D01*
X152468679Y-93198327D01*
X152468685Y-93198327D01*
X152656000Y-93184407D01*
X152656004Y-93184406D01*
X152660652Y-93184061D01*
X152665200Y-93183032D01*
X152665206Y-93183031D01*
X152856146Y-93139825D01*
X152915577Y-93126377D01*
X152951769Y-93112303D01*
X153154824Y-93033340D01*
X153154827Y-93033339D01*
X153159177Y-93031647D01*
X153386098Y-92901951D01*
X153591357Y-92740138D01*
X153770443Y-92549763D01*
X153919424Y-92335009D01*
X153939445Y-92294411D01*
X154032960Y-92104781D01*
X154032961Y-92104778D01*
X154035025Y-92100593D01*
X154068041Y-91997452D01*
X154113280Y-91856123D01*
X154114707Y-91851665D01*
X154156721Y-91593693D01*
X154160142Y-91332345D01*
X154124896Y-91073362D01*
X154110473Y-91023877D01*
X154053068Y-90826932D01*
X154051757Y-90822433D01*
X153942332Y-90585072D01*
X153817978Y-90395400D01*
X153801590Y-90370404D01*
X153801586Y-90370399D01*
X153799024Y-90366491D01*
X153624982Y-90171494D01*
X153424030Y-90004363D01*
X153376844Y-89975730D01*
X153204578Y-89871196D01*
X153204574Y-89871194D01*
X153200581Y-89868771D01*
X152959545Y-89767697D01*
X152706217Y-89703359D01*
X152701566Y-89702891D01*
X152701562Y-89702890D01*
X152492271Y-89681816D01*
X152489133Y-89681500D01*
X152333646Y-89681500D01*
X152331321Y-89681673D01*
X152331315Y-89681673D01*
X152144000Y-89695593D01*
X152143996Y-89695594D01*
X152139348Y-89695939D01*
X152134800Y-89696968D01*
X152134794Y-89696969D01*
X151956396Y-89737337D01*
X151884423Y-89753623D01*
X151880071Y-89755315D01*
X151880069Y-89755316D01*
X151645176Y-89846660D01*
X151645173Y-89846661D01*
X151640823Y-89848353D01*
X151636769Y-89850670D01*
X151636767Y-89850671D01*
X151567144Y-89890464D01*
X151413902Y-89978049D01*
X151208643Y-90139862D01*
X151029557Y-90330237D01*
X150880576Y-90544991D01*
X150764975Y-90779407D01*
X150685293Y-91028335D01*
X150643279Y-91286307D01*
X150643218Y-91290980D01*
X150641581Y-91416063D01*
X150639858Y-91547655D01*
X138115293Y-91547655D01*
X138210589Y-91411558D01*
X138266816Y-91290980D01*
X138297633Y-91224892D01*
X138297634Y-91224891D01*
X138299956Y-91219910D01*
X138322296Y-91136538D01*
X138353262Y-91020970D01*
X138353262Y-91020968D01*
X138354686Y-91015655D01*
X138373116Y-90805000D01*
X138354686Y-90594345D01*
X138299956Y-90390090D01*
X138222157Y-90223250D01*
X138212912Y-90203423D01*
X138212910Y-90203420D01*
X138210589Y-90198442D01*
X138089301Y-90025224D01*
X137939776Y-89875699D01*
X137766558Y-89754411D01*
X137761580Y-89752090D01*
X137761577Y-89752088D01*
X137579892Y-89667367D01*
X137579891Y-89667366D01*
X137574910Y-89665044D01*
X137569602Y-89663622D01*
X137569600Y-89663621D01*
X137541930Y-89656207D01*
X137481307Y-89619255D01*
X137450286Y-89555394D01*
X137458714Y-89484900D01*
X137503917Y-89430153D01*
X137574541Y-89408500D01*
X153620633Y-89408500D01*
X153640018Y-89410000D01*
X153654852Y-89412310D01*
X153654855Y-89412310D01*
X153663724Y-89413691D01*
X153673659Y-89412392D01*
X153674746Y-89412250D01*
X153703431Y-89411793D01*
X153776741Y-89419013D01*
X153806212Y-89421916D01*
X153830432Y-89426733D01*
X153949546Y-89462866D01*
X153972355Y-89472315D01*
X154082124Y-89530987D01*
X154102655Y-89544705D01*
X154198876Y-89623671D01*
X154216329Y-89641124D01*
X154295295Y-89737345D01*
X154309013Y-89757876D01*
X154367685Y-89867645D01*
X154377134Y-89890454D01*
X154413267Y-90009568D01*
X154418084Y-90033789D01*
X154427541Y-90129809D01*
X154427091Y-90145868D01*
X154427800Y-90145877D01*
X154427690Y-90154853D01*
X154426309Y-90163724D01*
X154427473Y-90172626D01*
X154427473Y-90172628D01*
X154430436Y-90195283D01*
X154431500Y-90211621D01*
X154431500Y-107900633D01*
X154430000Y-107920018D01*
X154426309Y-107943724D01*
X154427473Y-107952626D01*
X154427750Y-107954746D01*
X154428207Y-107983431D01*
X154427289Y-107992755D01*
X154418084Y-108086212D01*
X154413267Y-108110432D01*
X154377134Y-108229546D01*
X154367685Y-108252355D01*
X154309013Y-108362124D01*
X154295295Y-108382655D01*
X154216329Y-108478876D01*
X154198876Y-108496329D01*
X154102655Y-108575295D01*
X154082124Y-108589013D01*
X153972355Y-108647685D01*
X153949546Y-108657134D01*
X153830432Y-108693267D01*
X153806211Y-108698084D01*
X153710191Y-108707541D01*
X153694132Y-108707091D01*
X153694123Y-108707800D01*
X153685147Y-108707690D01*
X153676276Y-108706309D01*
X153667374Y-108707473D01*
X153667372Y-108707473D01*
X153654856Y-108709110D01*
X153644714Y-108710436D01*
X153628379Y-108711500D01*
X125779367Y-108711500D01*
X125759982Y-108710000D01*
X125745148Y-108707690D01*
X125745145Y-108707690D01*
X125736276Y-108706309D01*
X125726341Y-108707608D01*
X125725254Y-108707750D01*
X125696569Y-108708207D01*
X125623259Y-108700987D01*
X125593788Y-108698084D01*
X125569568Y-108693267D01*
X125450454Y-108657134D01*
X125427645Y-108647685D01*
X125317876Y-108589013D01*
X125297345Y-108575295D01*
X125201124Y-108496329D01*
X125183671Y-108478876D01*
X125104705Y-108382655D01*
X125090987Y-108362124D01*
X125032315Y-108252355D01*
X125022866Y-108229546D01*
X124986733Y-108110432D01*
X124981916Y-108086212D01*
X124972711Y-107992755D01*
X124972607Y-107969151D01*
X124972768Y-107967354D01*
X124973576Y-107962552D01*
X124973729Y-107950000D01*
X124969773Y-107922376D01*
X124968500Y-107904514D01*
X124968500Y-106787655D01*
X125239858Y-106787655D01*
X125275104Y-107046638D01*
X125276412Y-107051124D01*
X125276412Y-107051126D01*
X125296098Y-107118664D01*
X125348243Y-107297567D01*
X125457668Y-107534928D01*
X125460231Y-107538837D01*
X125598410Y-107749596D01*
X125598414Y-107749601D01*
X125600976Y-107753509D01*
X125775018Y-107948506D01*
X125975970Y-108115637D01*
X125979973Y-108118066D01*
X126195422Y-108248804D01*
X126195426Y-108248806D01*
X126199419Y-108251229D01*
X126440455Y-108352303D01*
X126693783Y-108416641D01*
X126698434Y-108417109D01*
X126698438Y-108417110D01*
X126891308Y-108436531D01*
X126910867Y-108438500D01*
X127066354Y-108438500D01*
X127068679Y-108438327D01*
X127068685Y-108438327D01*
X127256000Y-108424407D01*
X127256004Y-108424406D01*
X127260652Y-108424061D01*
X127265200Y-108423032D01*
X127265206Y-108423031D01*
X127451601Y-108380853D01*
X127515577Y-108366377D01*
X127551769Y-108352303D01*
X127754824Y-108273340D01*
X127754827Y-108273339D01*
X127759177Y-108271647D01*
X127986098Y-108141951D01*
X128191357Y-107980138D01*
X128370443Y-107789763D01*
X128519424Y-107575009D01*
X128635025Y-107340593D01*
X128714707Y-107091665D01*
X128756721Y-106833693D01*
X128757324Y-106787655D01*
X150639858Y-106787655D01*
X150675104Y-107046638D01*
X150676412Y-107051124D01*
X150676412Y-107051126D01*
X150696098Y-107118664D01*
X150748243Y-107297567D01*
X150857668Y-107534928D01*
X150860231Y-107538837D01*
X150998410Y-107749596D01*
X150998414Y-107749601D01*
X151000976Y-107753509D01*
X151175018Y-107948506D01*
X151375970Y-108115637D01*
X151379973Y-108118066D01*
X151595422Y-108248804D01*
X151595426Y-108248806D01*
X151599419Y-108251229D01*
X151840455Y-108352303D01*
X152093783Y-108416641D01*
X152098434Y-108417109D01*
X152098438Y-108417110D01*
X152291308Y-108436531D01*
X152310867Y-108438500D01*
X152466354Y-108438500D01*
X152468679Y-108438327D01*
X152468685Y-108438327D01*
X152656000Y-108424407D01*
X152656004Y-108424406D01*
X152660652Y-108424061D01*
X152665200Y-108423032D01*
X152665206Y-108423031D01*
X152851601Y-108380853D01*
X152915577Y-108366377D01*
X152951769Y-108352303D01*
X153154824Y-108273340D01*
X153154827Y-108273339D01*
X153159177Y-108271647D01*
X153386098Y-108141951D01*
X153591357Y-107980138D01*
X153770443Y-107789763D01*
X153919424Y-107575009D01*
X154035025Y-107340593D01*
X154114707Y-107091665D01*
X154156721Y-106833693D01*
X154160142Y-106572345D01*
X154124896Y-106313362D01*
X154110473Y-106263877D01*
X154053068Y-106066932D01*
X154051757Y-106062433D01*
X153942332Y-105825072D01*
X153909519Y-105775024D01*
X153801590Y-105610404D01*
X153801586Y-105610399D01*
X153799024Y-105606491D01*
X153624982Y-105411494D01*
X153424030Y-105244363D01*
X153376844Y-105215730D01*
X153204578Y-105111196D01*
X153204574Y-105111194D01*
X153200581Y-105108771D01*
X152959545Y-105007697D01*
X152706217Y-104943359D01*
X152701566Y-104942891D01*
X152701562Y-104942890D01*
X152492271Y-104921816D01*
X152489133Y-104921500D01*
X152333646Y-104921500D01*
X152331321Y-104921673D01*
X152331315Y-104921673D01*
X152144000Y-104935593D01*
X152143996Y-104935594D01*
X152139348Y-104935939D01*
X152134800Y-104936968D01*
X152134794Y-104936969D01*
X151948399Y-104979147D01*
X151884423Y-104993623D01*
X151880071Y-104995315D01*
X151880069Y-104995316D01*
X151645176Y-105086660D01*
X151645173Y-105086661D01*
X151640823Y-105088353D01*
X151413902Y-105218049D01*
X151208643Y-105379862D01*
X151029557Y-105570237D01*
X150880576Y-105784991D01*
X150764975Y-106019407D01*
X150685293Y-106268335D01*
X150643279Y-106526307D01*
X150639858Y-106787655D01*
X128757324Y-106787655D01*
X128760142Y-106572345D01*
X128724896Y-106313362D01*
X128710473Y-106263877D01*
X128653068Y-106066932D01*
X128651757Y-106062433D01*
X128542332Y-105825072D01*
X128509519Y-105775024D01*
X128401590Y-105610404D01*
X128401586Y-105610399D01*
X128399024Y-105606491D01*
X128224982Y-105411494D01*
X128024030Y-105244363D01*
X127976844Y-105215730D01*
X127804578Y-105111196D01*
X127804574Y-105111194D01*
X127800581Y-105108771D01*
X127559545Y-105007697D01*
X127306217Y-104943359D01*
X127301566Y-104942891D01*
X127301562Y-104942890D01*
X127092271Y-104921816D01*
X127089133Y-104921500D01*
X126933646Y-104921500D01*
X126931321Y-104921673D01*
X126931315Y-104921673D01*
X126744000Y-104935593D01*
X126743996Y-104935594D01*
X126739348Y-104935939D01*
X126734800Y-104936968D01*
X126734794Y-104936969D01*
X126548399Y-104979147D01*
X126484423Y-104993623D01*
X126480071Y-104995315D01*
X126480069Y-104995316D01*
X126245176Y-105086660D01*
X126245173Y-105086661D01*
X126240823Y-105088353D01*
X126013902Y-105218049D01*
X125808643Y-105379862D01*
X125629557Y-105570237D01*
X125480576Y-105784991D01*
X125364975Y-106019407D01*
X125285293Y-106268335D01*
X125243279Y-106526307D01*
X125239858Y-106787655D01*
X124968500Y-106787655D01*
X124968500Y-104197197D01*
X124988502Y-104129076D01*
X125042158Y-104082583D01*
X125112432Y-104072479D01*
X125170065Y-104096371D01*
X125261351Y-104164786D01*
X125276946Y-104173324D01*
X125397394Y-104218478D01*
X125412649Y-104222105D01*
X125463514Y-104227631D01*
X125470328Y-104228000D01*
X126092885Y-104228000D01*
X126108124Y-104223525D01*
X126109329Y-104222135D01*
X126111000Y-104214452D01*
X126111000Y-104209884D01*
X126619000Y-104209884D01*
X126623475Y-104225123D01*
X126624865Y-104226328D01*
X126632548Y-104227999D01*
X127259669Y-104227999D01*
X127266490Y-104227629D01*
X127317352Y-104222105D01*
X127332604Y-104218479D01*
X127453054Y-104173324D01*
X127468649Y-104164786D01*
X127570724Y-104088285D01*
X127583285Y-104075724D01*
X127659786Y-103973649D01*
X127668324Y-103958054D01*
X127713478Y-103837606D01*
X127717105Y-103822351D01*
X127722631Y-103771486D01*
X127723000Y-103764672D01*
X127723000Y-103142115D01*
X127718525Y-103126876D01*
X127717135Y-103125671D01*
X127709452Y-103124000D01*
X126637115Y-103124000D01*
X126621876Y-103128475D01*
X126620671Y-103129865D01*
X126619000Y-103137548D01*
X126619000Y-104209884D01*
X126111000Y-104209884D01*
X126111000Y-102742000D01*
X126131002Y-102673879D01*
X126184658Y-102627386D01*
X126237000Y-102616000D01*
X127704884Y-102616000D01*
X127720123Y-102611525D01*
X127721328Y-102610135D01*
X127722999Y-102602452D01*
X127722999Y-101975331D01*
X127722629Y-101968510D01*
X127717105Y-101917648D01*
X127713479Y-101902396D01*
X127668324Y-101781946D01*
X127659786Y-101766351D01*
X127583285Y-101664276D01*
X127570724Y-101651715D01*
X127468649Y-101575214D01*
X127453054Y-101566676D01*
X127342813Y-101525348D01*
X127286049Y-101482706D01*
X127261349Y-101416145D01*
X127276557Y-101346796D01*
X127298104Y-101318115D01*
X127399430Y-101217144D01*
X127399440Y-101217132D01*
X127403096Y-101213489D01*
X127408320Y-101206219D01*
X127464312Y-101162569D01*
X127535015Y-101156119D01*
X127599741Y-101190645D01*
X129671343Y-103262247D01*
X129678887Y-103270537D01*
X129683000Y-103277018D01*
X129688777Y-103282443D01*
X129732667Y-103323658D01*
X129735509Y-103326413D01*
X129755230Y-103346134D01*
X129758425Y-103348612D01*
X129767447Y-103356318D01*
X129799679Y-103386586D01*
X129806628Y-103390406D01*
X129817432Y-103396346D01*
X129833956Y-103407199D01*
X129849959Y-103419613D01*
X129890543Y-103437176D01*
X129901173Y-103442383D01*
X129939940Y-103463695D01*
X129947617Y-103465666D01*
X129947622Y-103465668D01*
X129959558Y-103468732D01*
X129978266Y-103475137D01*
X129996855Y-103483181D01*
X130004680Y-103484420D01*
X130004682Y-103484421D01*
X130040519Y-103490097D01*
X130052140Y-103492504D01*
X130087289Y-103501528D01*
X130094970Y-103503500D01*
X130115231Y-103503500D01*
X130134940Y-103505051D01*
X130154943Y-103508219D01*
X130162835Y-103507473D01*
X130168062Y-103506979D01*
X130198954Y-103504059D01*
X130210811Y-103503500D01*
X137332685Y-103503500D01*
X137400806Y-103523502D01*
X137435898Y-103557230D01*
X137500699Y-103649776D01*
X137650224Y-103799301D01*
X137823442Y-103920589D01*
X137828420Y-103922910D01*
X137828423Y-103922912D01*
X137937229Y-103973649D01*
X138015090Y-104009956D01*
X138020398Y-104011378D01*
X138020400Y-104011379D01*
X138214030Y-104063262D01*
X138214032Y-104063262D01*
X138219345Y-104064686D01*
X138430000Y-104083116D01*
X138640655Y-104064686D01*
X138645968Y-104063262D01*
X138645970Y-104063262D01*
X138839600Y-104011379D01*
X138839602Y-104011378D01*
X138844910Y-104009956D01*
X138922771Y-103973649D01*
X139031577Y-103922912D01*
X139031580Y-103922910D01*
X139036558Y-103920589D01*
X139209776Y-103799301D01*
X139359301Y-103649776D01*
X139480589Y-103476558D01*
X139484239Y-103468732D01*
X139567633Y-103289892D01*
X139567634Y-103289891D01*
X139569956Y-103284910D01*
X139574355Y-103268495D01*
X139623262Y-103085970D01*
X139623262Y-103085968D01*
X139624686Y-103080655D01*
X139643116Y-102870000D01*
X142296884Y-102870000D01*
X142315314Y-103080655D01*
X142316738Y-103085968D01*
X142316738Y-103085970D01*
X142365646Y-103268495D01*
X142370044Y-103284910D01*
X142372366Y-103289891D01*
X142372367Y-103289892D01*
X142455762Y-103468732D01*
X142459411Y-103476558D01*
X142580699Y-103649776D01*
X142730224Y-103799301D01*
X142903442Y-103920589D01*
X142908420Y-103922910D01*
X142908423Y-103922912D01*
X143017229Y-103973649D01*
X143095090Y-104009956D01*
X143100398Y-104011378D01*
X143100400Y-104011379D01*
X143294030Y-104063262D01*
X143294032Y-104063262D01*
X143299345Y-104064686D01*
X143510000Y-104083116D01*
X143720655Y-104064686D01*
X143725968Y-104063262D01*
X143725970Y-104063262D01*
X143919600Y-104011379D01*
X143919602Y-104011378D01*
X143924910Y-104009956D01*
X144002771Y-103973649D01*
X144111577Y-103922912D01*
X144111580Y-103922910D01*
X144116558Y-103920589D01*
X144289776Y-103799301D01*
X144439301Y-103649776D01*
X144560589Y-103476558D01*
X144564239Y-103468732D01*
X144647633Y-103289892D01*
X144647634Y-103289891D01*
X144649956Y-103284910D01*
X144654355Y-103268495D01*
X144703262Y-103085970D01*
X144703262Y-103085968D01*
X144704686Y-103080655D01*
X144723116Y-102870000D01*
X144722637Y-102864525D01*
X144705165Y-102664816D01*
X144705164Y-102664812D01*
X144704686Y-102659345D01*
X144703264Y-102654039D01*
X144702453Y-102649439D01*
X144710321Y-102578879D01*
X144737443Y-102538462D01*
X144842253Y-102433652D01*
X144850539Y-102426112D01*
X144857018Y-102422000D01*
X144903644Y-102372348D01*
X144906398Y-102369507D01*
X144926135Y-102349770D01*
X144928615Y-102346573D01*
X144936320Y-102337551D01*
X144961159Y-102311100D01*
X144966586Y-102305321D01*
X144970405Y-102298375D01*
X144970407Y-102298372D01*
X144976348Y-102287566D01*
X144987199Y-102271047D01*
X144989234Y-102268423D01*
X144999614Y-102255041D01*
X145002759Y-102247772D01*
X145002762Y-102247768D01*
X145017174Y-102214463D01*
X145022391Y-102203813D01*
X145043695Y-102165060D01*
X145048733Y-102145437D01*
X145055137Y-102126734D01*
X145060033Y-102115420D01*
X145060033Y-102115419D01*
X145063181Y-102108145D01*
X145064420Y-102100322D01*
X145064423Y-102100312D01*
X145070099Y-102064476D01*
X145072505Y-102052856D01*
X145081528Y-102017711D01*
X145081528Y-102017710D01*
X145083500Y-102010030D01*
X145083500Y-101989776D01*
X145085051Y-101970065D01*
X145086980Y-101957886D01*
X145088220Y-101950057D01*
X145084059Y-101906038D01*
X145083500Y-101894181D01*
X145083500Y-100396752D01*
X145103502Y-100328631D01*
X145154068Y-100283601D01*
X145161316Y-100280050D01*
X145169043Y-100276265D01*
X145169048Y-100276262D01*
X145173684Y-100273991D01*
X145177888Y-100270993D01*
X145177892Y-100270990D01*
X145258281Y-100213649D01*
X145362243Y-100139494D01*
X145365898Y-100135852D01*
X145365906Y-100135845D01*
X145407697Y-100094199D01*
X145470068Y-100060282D01*
X145540875Y-100065470D01*
X145597637Y-100108116D01*
X145614619Y-100139218D01*
X145636677Y-100198056D01*
X145645214Y-100213649D01*
X145721715Y-100315724D01*
X145734276Y-100328285D01*
X145836351Y-100404786D01*
X145851946Y-100413324D01*
X145972394Y-100458478D01*
X145987649Y-100462105D01*
X146038514Y-100467631D01*
X146045328Y-100468000D01*
X146717885Y-100468000D01*
X146733124Y-100463525D01*
X146734329Y-100462135D01*
X146736000Y-100454452D01*
X146736000Y-100449884D01*
X147244000Y-100449884D01*
X147248475Y-100465123D01*
X147249865Y-100466328D01*
X147257548Y-100467999D01*
X147934669Y-100467999D01*
X147941490Y-100467629D01*
X147992352Y-100462105D01*
X148007604Y-100458479D01*
X148128054Y-100413324D01*
X148143649Y-100404786D01*
X148245724Y-100328285D01*
X148258285Y-100315724D01*
X148334786Y-100213649D01*
X148343324Y-100198054D01*
X148388478Y-100077606D01*
X148392105Y-100062351D01*
X148397631Y-100011486D01*
X148398000Y-100004672D01*
X148398000Y-99332115D01*
X148393525Y-99316876D01*
X148392135Y-99315671D01*
X148384452Y-99314000D01*
X147262115Y-99314000D01*
X147246876Y-99318475D01*
X147245671Y-99319865D01*
X147244000Y-99327548D01*
X147244000Y-100449884D01*
X146736000Y-100449884D01*
X146736000Y-98787885D01*
X147244000Y-98787885D01*
X147248475Y-98803124D01*
X147249865Y-98804329D01*
X147257548Y-98806000D01*
X148379884Y-98806000D01*
X148395123Y-98801525D01*
X148396328Y-98800135D01*
X148397999Y-98792452D01*
X148397999Y-98115331D01*
X148397629Y-98108510D01*
X148392105Y-98057648D01*
X148388479Y-98042396D01*
X148343324Y-97921946D01*
X148334786Y-97906351D01*
X148258285Y-97804276D01*
X148245724Y-97791715D01*
X148143649Y-97715214D01*
X148128054Y-97706676D01*
X148007606Y-97661522D01*
X147992351Y-97657895D01*
X147941486Y-97652369D01*
X147934672Y-97652000D01*
X147262115Y-97652000D01*
X147246876Y-97656475D01*
X147245671Y-97657865D01*
X147244000Y-97665548D01*
X147244000Y-98787885D01*
X146736000Y-98787885D01*
X146736000Y-97670116D01*
X146731525Y-97654877D01*
X146730135Y-97653672D01*
X146722452Y-97652001D01*
X146045331Y-97652001D01*
X146038510Y-97652371D01*
X145987648Y-97657895D01*
X145972396Y-97661521D01*
X145851946Y-97706676D01*
X145836351Y-97715214D01*
X145734276Y-97791715D01*
X145721715Y-97804276D01*
X145645214Y-97906351D01*
X145636675Y-97921948D01*
X145615934Y-97977275D01*
X145573293Y-98034040D01*
X145506731Y-98058740D01*
X145437383Y-98043533D01*
X145414388Y-98026909D01*
X145413887Y-98026358D01*
X145380527Y-98000012D01*
X145236177Y-97886011D01*
X145236172Y-97886008D01*
X145232123Y-97882810D01*
X145227607Y-97880317D01*
X145227604Y-97880315D01*
X145033879Y-97773373D01*
X145033875Y-97773371D01*
X145029355Y-97770876D01*
X145024486Y-97769152D01*
X145024482Y-97769150D01*
X144815903Y-97695288D01*
X144815899Y-97695287D01*
X144811028Y-97693562D01*
X144805935Y-97692655D01*
X144805932Y-97692654D01*
X144588095Y-97653851D01*
X144588089Y-97653850D01*
X144583006Y-97652945D01*
X144505644Y-97652000D01*
X144356581Y-97650179D01*
X144356579Y-97650179D01*
X144351411Y-97650116D01*
X144122464Y-97685150D01*
X143902314Y-97757106D01*
X143897726Y-97759494D01*
X143897722Y-97759496D01*
X143749401Y-97836707D01*
X143696872Y-97864052D01*
X143692739Y-97867155D01*
X143692736Y-97867157D01*
X143515790Y-98000012D01*
X143511655Y-98003117D01*
X143351639Y-98170564D01*
X143221119Y-98361899D01*
X143123602Y-98571981D01*
X143061707Y-98795169D01*
X143037095Y-99025469D01*
X143037392Y-99030622D01*
X143037392Y-99030625D01*
X143047031Y-99197800D01*
X143050427Y-99256697D01*
X143051564Y-99261743D01*
X143051565Y-99261749D01*
X143066394Y-99327548D01*
X143101346Y-99482642D01*
X143103288Y-99487424D01*
X143103289Y-99487428D01*
X143180933Y-99678642D01*
X143188484Y-99697237D01*
X143309501Y-99894719D01*
X143461147Y-100069784D01*
X143639349Y-100217730D01*
X143752073Y-100283600D01*
X143754070Y-100284767D01*
X143802794Y-100336405D01*
X143816500Y-100393555D01*
X143816500Y-101546194D01*
X143796498Y-101614315D01*
X143742842Y-101660808D01*
X143679518Y-101671715D01*
X143594491Y-101664276D01*
X143510000Y-101656884D01*
X143299345Y-101675314D01*
X143294032Y-101676738D01*
X143294030Y-101676738D01*
X143100400Y-101728621D01*
X143100398Y-101728622D01*
X143095090Y-101730044D01*
X143090109Y-101732366D01*
X143090108Y-101732367D01*
X142908423Y-101817088D01*
X142908420Y-101817090D01*
X142903442Y-101819411D01*
X142730224Y-101940699D01*
X142580699Y-102090224D01*
X142459411Y-102263442D01*
X142457090Y-102268420D01*
X142457088Y-102268423D01*
X142408627Y-102372349D01*
X142370044Y-102455090D01*
X142368622Y-102460398D01*
X142368621Y-102460400D01*
X142336875Y-102578879D01*
X142315314Y-102659345D01*
X142296884Y-102870000D01*
X139643116Y-102870000D01*
X139624686Y-102659345D01*
X139603125Y-102578879D01*
X139571379Y-102460400D01*
X139571378Y-102460398D01*
X139569956Y-102455090D01*
X139531373Y-102372349D01*
X139482912Y-102268423D01*
X139482910Y-102268420D01*
X139480589Y-102263442D01*
X139359301Y-102090224D01*
X139209776Y-101940699D01*
X139036558Y-101819411D01*
X139031580Y-101817090D01*
X139031577Y-101817088D01*
X138849892Y-101732367D01*
X138849891Y-101732366D01*
X138844910Y-101730044D01*
X138839602Y-101728622D01*
X138839600Y-101728621D01*
X138645970Y-101676738D01*
X138645968Y-101676738D01*
X138640655Y-101675314D01*
X138430000Y-101656884D01*
X138219345Y-101675314D01*
X138214032Y-101676738D01*
X138214030Y-101676738D01*
X138020400Y-101728621D01*
X138020398Y-101728622D01*
X138015090Y-101730044D01*
X138010109Y-101732366D01*
X138010108Y-101732367D01*
X137828423Y-101817088D01*
X137828420Y-101817090D01*
X137823442Y-101819411D01*
X137650224Y-101940699D01*
X137500699Y-102090224D01*
X137435898Y-102182770D01*
X137380441Y-102227099D01*
X137332685Y-102236500D01*
X130489595Y-102236500D01*
X130421474Y-102216498D01*
X130400500Y-102199595D01*
X128138652Y-99937747D01*
X128131112Y-99929461D01*
X128127000Y-99922982D01*
X128077348Y-99876356D01*
X128074507Y-99873602D01*
X128054770Y-99853865D01*
X128051573Y-99851385D01*
X128042551Y-99843680D01*
X128016100Y-99818841D01*
X128010321Y-99813414D01*
X128003375Y-99809595D01*
X128003372Y-99809593D01*
X127992566Y-99803652D01*
X127976047Y-99792801D01*
X127969750Y-99787917D01*
X127960041Y-99780386D01*
X127952772Y-99777241D01*
X127952768Y-99777238D01*
X127919463Y-99762826D01*
X127908813Y-99757609D01*
X127870060Y-99736305D01*
X127850437Y-99731267D01*
X127831734Y-99724863D01*
X127820420Y-99719967D01*
X127820419Y-99719967D01*
X127813145Y-99716819D01*
X127805322Y-99715580D01*
X127805312Y-99715577D01*
X127769476Y-99709901D01*
X127757856Y-99707495D01*
X127722711Y-99698472D01*
X127722710Y-99698472D01*
X127715030Y-99696500D01*
X127694776Y-99696500D01*
X127675065Y-99694949D01*
X127662886Y-99693020D01*
X127655057Y-99691780D01*
X127647165Y-99692526D01*
X127639242Y-99692277D01*
X127639319Y-99689841D01*
X127581508Y-99678642D01*
X127533557Y-99635143D01*
X127447822Y-99502617D01*
X127447820Y-99502614D01*
X127445014Y-99498277D01*
X127294670Y-99333051D01*
X127290619Y-99329852D01*
X127290615Y-99329848D01*
X127123414Y-99197800D01*
X127123410Y-99197798D01*
X127119359Y-99194598D01*
X127078053Y-99171796D01*
X127028084Y-99121364D01*
X127013312Y-99051921D01*
X127038428Y-98985516D01*
X127065780Y-98958909D01*
X127109603Y-98927650D01*
X127244860Y-98831173D01*
X127285980Y-98790197D01*
X127399435Y-98677137D01*
X127403096Y-98673489D01*
X127476037Y-98571981D01*
X127530435Y-98496277D01*
X127533453Y-98492077D01*
X127535746Y-98487437D01*
X127537446Y-98484608D01*
X127589674Y-98436518D01*
X127645451Y-98423500D01*
X128826233Y-98423500D01*
X128837416Y-98424027D01*
X128844909Y-98425702D01*
X128852835Y-98425453D01*
X128852836Y-98425453D01*
X128912986Y-98423562D01*
X128916945Y-98423500D01*
X128944856Y-98423500D01*
X128948791Y-98423003D01*
X128948856Y-98422995D01*
X128960693Y-98422062D01*
X128992951Y-98421048D01*
X128996970Y-98420922D01*
X129004889Y-98420673D01*
X129024343Y-98415021D01*
X129043700Y-98411013D01*
X129055930Y-98409468D01*
X129055931Y-98409468D01*
X129063797Y-98408474D01*
X129071168Y-98405555D01*
X129071170Y-98405555D01*
X129104912Y-98392196D01*
X129116142Y-98388351D01*
X129150983Y-98378229D01*
X129150984Y-98378229D01*
X129158593Y-98376018D01*
X129165412Y-98371985D01*
X129165417Y-98371983D01*
X129176028Y-98365707D01*
X129193776Y-98357012D01*
X129212617Y-98349552D01*
X129248387Y-98323564D01*
X129258307Y-98317048D01*
X129289535Y-98298580D01*
X129289538Y-98298578D01*
X129296362Y-98294542D01*
X129310683Y-98280221D01*
X129325717Y-98267380D01*
X129335694Y-98260131D01*
X129342107Y-98255472D01*
X129370298Y-98221395D01*
X129378288Y-98212616D01*
X133492033Y-94098871D01*
X133554345Y-94064845D01*
X133625160Y-94069910D01*
X133684338Y-94115692D01*
X133690699Y-94124776D01*
X133840224Y-94274301D01*
X134013442Y-94395589D01*
X134018420Y-94397910D01*
X134018423Y-94397912D01*
X134113646Y-94442315D01*
X134205090Y-94484956D01*
X134210398Y-94486378D01*
X134210400Y-94486379D01*
X134404030Y-94538262D01*
X134404032Y-94538262D01*
X134409345Y-94539686D01*
X134620000Y-94558116D01*
X134830655Y-94539686D01*
X134835968Y-94538262D01*
X134835970Y-94538262D01*
X135029600Y-94486379D01*
X135029602Y-94486378D01*
X135034910Y-94484956D01*
X135126354Y-94442315D01*
X135221577Y-94397912D01*
X135221580Y-94397910D01*
X135226558Y-94395589D01*
X135399776Y-94274301D01*
X135549301Y-94124776D01*
X135670589Y-93951558D01*
X135680101Y-93931161D01*
X135757633Y-93764892D01*
X135757634Y-93764891D01*
X135759956Y-93759910D01*
X135814686Y-93555655D01*
X135833116Y-93345000D01*
X135814686Y-93134345D01*
X135781697Y-93011229D01*
X135761379Y-92935400D01*
X135761378Y-92935398D01*
X135759956Y-92930090D01*
X135734564Y-92875637D01*
X135672912Y-92743423D01*
X135672910Y-92743420D01*
X135670589Y-92738442D01*
X135549301Y-92565224D01*
X135399776Y-92415699D01*
X135226558Y-92294411D01*
X135221580Y-92292090D01*
X135221577Y-92292088D01*
X135039892Y-92207367D01*
X135039891Y-92207366D01*
X135034910Y-92205044D01*
X135029602Y-92203622D01*
X135029600Y-92203621D01*
X134835970Y-92151738D01*
X134835968Y-92151738D01*
X134830655Y-92150314D01*
X134620000Y-92131884D01*
X134409345Y-92150314D01*
X134404032Y-92151738D01*
X134404030Y-92151738D01*
X134210400Y-92203621D01*
X134210398Y-92203622D01*
X134205090Y-92205044D01*
X134200109Y-92207366D01*
X134200108Y-92207367D01*
X134018423Y-92292088D01*
X134018420Y-92292090D01*
X134013442Y-92294411D01*
X133840224Y-92415699D01*
X133690699Y-92565224D01*
X133687540Y-92569736D01*
X133625898Y-92657770D01*
X133570441Y-92702099D01*
X133522685Y-92711500D01*
X133428767Y-92711500D01*
X133417584Y-92710973D01*
X133410091Y-92709298D01*
X133402165Y-92709547D01*
X133402164Y-92709547D01*
X133342014Y-92711438D01*
X133338055Y-92711500D01*
X133310144Y-92711500D01*
X133306210Y-92711997D01*
X133306209Y-92711997D01*
X133306144Y-92712005D01*
X133294307Y-92712938D01*
X133262490Y-92713938D01*
X133258029Y-92714078D01*
X133250110Y-92714327D01*
X133232454Y-92719456D01*
X133230658Y-92719978D01*
X133211306Y-92723986D01*
X133204235Y-92724880D01*
X133191203Y-92726526D01*
X133183834Y-92729443D01*
X133183832Y-92729444D01*
X133150097Y-92742800D01*
X133138869Y-92746645D01*
X133096407Y-92758982D01*
X133089585Y-92763016D01*
X133089579Y-92763019D01*
X133078968Y-92769294D01*
X133061218Y-92777990D01*
X133049756Y-92782528D01*
X133049751Y-92782531D01*
X133042383Y-92785448D01*
X133035968Y-92790109D01*
X133006625Y-92811427D01*
X132996707Y-92817943D01*
X132978019Y-92828995D01*
X132958637Y-92840458D01*
X132944313Y-92854782D01*
X132929281Y-92867621D01*
X132912893Y-92879528D01*
X132896736Y-92899059D01*
X132884712Y-92913593D01*
X132876722Y-92922373D01*
X128679500Y-97119595D01*
X128617188Y-97153621D01*
X128590405Y-97156500D01*
X127641805Y-97156500D01*
X127573684Y-97136498D01*
X127536013Y-97098940D01*
X127447822Y-96962617D01*
X127447820Y-96962614D01*
X127445014Y-96958277D01*
X127294670Y-96793051D01*
X127290619Y-96789852D01*
X127290615Y-96789848D01*
X127123414Y-96657800D01*
X127123410Y-96657798D01*
X127119359Y-96654598D01*
X127078053Y-96631796D01*
X127028084Y-96581364D01*
X127013312Y-96511921D01*
X127038428Y-96445516D01*
X127065780Y-96418909D01*
X127132633Y-96371223D01*
X127244860Y-96291173D01*
X127403096Y-96133489D01*
X127418262Y-96112384D01*
X127459272Y-96055312D01*
X127533453Y-95952077D01*
X127535745Y-95947440D01*
X127537420Y-95944652D01*
X127589651Y-95896564D01*
X127641451Y-95883611D01*
X127642973Y-95883563D01*
X127646945Y-95883500D01*
X127674856Y-95883500D01*
X127678791Y-95883003D01*
X127678856Y-95882995D01*
X127690693Y-95882062D01*
X127722951Y-95881048D01*
X127726970Y-95880922D01*
X127734889Y-95880673D01*
X127754343Y-95875021D01*
X127773700Y-95871013D01*
X127785930Y-95869468D01*
X127785931Y-95869468D01*
X127793797Y-95868474D01*
X127801168Y-95865555D01*
X127801170Y-95865555D01*
X127834912Y-95852196D01*
X127846142Y-95848351D01*
X127880983Y-95838229D01*
X127880984Y-95838229D01*
X127888593Y-95836018D01*
X127895412Y-95831985D01*
X127895417Y-95831983D01*
X127906028Y-95825707D01*
X127923776Y-95817012D01*
X127942617Y-95809552D01*
X127978387Y-95783564D01*
X127988307Y-95777048D01*
X128019535Y-95758580D01*
X128019538Y-95758578D01*
X128026362Y-95754542D01*
X128040683Y-95740221D01*
X128055717Y-95727380D01*
X128065694Y-95720131D01*
X128072107Y-95715472D01*
X128100298Y-95681395D01*
X128108288Y-95672616D01*
X131748461Y-92032443D01*
X131810773Y-91998417D01*
X131859437Y-91997452D01*
X131864029Y-91998262D01*
X131869345Y-91999686D01*
X132080000Y-92018116D01*
X132290655Y-91999686D01*
X132295968Y-91998262D01*
X132295970Y-91998262D01*
X132489600Y-91946379D01*
X132489602Y-91946378D01*
X132494910Y-91944956D01*
X132586354Y-91902315D01*
X132681577Y-91857912D01*
X132681580Y-91857910D01*
X132686558Y-91855589D01*
X132859776Y-91734301D01*
X133009301Y-91584776D01*
X133130589Y-91411558D01*
X133186816Y-91290980D01*
X133217633Y-91224892D01*
X133217634Y-91224891D01*
X133219956Y-91219910D01*
X133242296Y-91136538D01*
X133273262Y-91020970D01*
X133273262Y-91020968D01*
X133274686Y-91015655D01*
X133293116Y-90805000D01*
X133274686Y-90594345D01*
X133219956Y-90390090D01*
X133142157Y-90223250D01*
X133132912Y-90203423D01*
X133132910Y-90203420D01*
X133130589Y-90198442D01*
X133009301Y-90025224D01*
X132859776Y-89875699D01*
X132686558Y-89754411D01*
X132681580Y-89752090D01*
X132681577Y-89752088D01*
X132499892Y-89667367D01*
X132499891Y-89667366D01*
X132494910Y-89665044D01*
X132489602Y-89663622D01*
X132489600Y-89663621D01*
X132461930Y-89656207D01*
X132401307Y-89619255D01*
X132370286Y-89555394D01*
X132378714Y-89484900D01*
X132423917Y-89430153D01*
X132494541Y-89408500D01*
X136745459Y-89408500D01*
X136813580Y-89428502D01*
G37*
%TD.AperFunction*%
%TD*%
M02*
