%TF.GenerationSoftware,KiCad,Pcbnew,6.0.5-2.fc35*%
%TF.CreationDate,2022-09-23T18:33:46+02:00*%
%TF.ProjectId,LED-Board,4c45442d-426f-4617-9264-2e6b69636164,rev?*%
%TF.SameCoordinates,Original*%
%TF.FileFunction,Copper,L1,Top*%
%TF.FilePolarity,Positive*%
%FSLAX46Y46*%
G04 Gerber Fmt 4.6, Leading zero omitted, Abs format (unit mm)*
G04 Created by KiCad (PCBNEW 6.0.5-2.fc35) date 2022-09-23 18:33:46*
%MOMM*%
%LPD*%
G01*
G04 APERTURE LIST*
%TA.AperFunction,ComponentPad*%
%ADD10R,1.800000X1.800000*%
%TD*%
%TA.AperFunction,ComponentPad*%
%ADD11C,1.800000*%
%TD*%
%TA.AperFunction,ComponentPad*%
%ADD12C,1.400000*%
%TD*%
%TA.AperFunction,ComponentPad*%
%ADD13O,1.400000X1.400000*%
%TD*%
%TA.AperFunction,ComponentPad*%
%ADD14R,1.700000X1.700000*%
%TD*%
%TA.AperFunction,ComponentPad*%
%ADD15O,1.700000X1.700000*%
%TD*%
G04 APERTURE END LIST*
D10*
%TO.P,D3,1,K*%
%TO.N,GND*%
X146990000Y-99060000D03*
D11*
%TO.P,D3,2,A*%
%TO.N,Net-(D3-Pad2)*%
X144450000Y-99060000D03*
%TD*%
D10*
%TO.P,D2,1,K*%
%TO.N,GND*%
X140640000Y-99060000D03*
D11*
%TO.P,D2,2,A*%
%TO.N,Net-(D2-Pad2)*%
X138100000Y-99060000D03*
%TD*%
D12*
%TO.P,R3,1*%
%TO.N,LED_3*%
X138430000Y-102870000D03*
D13*
%TO.P,R3,2*%
%TO.N,Net-(D3-Pad2)*%
X143510000Y-102870000D03*
%TD*%
D10*
%TO.P,D1,1,K*%
%TO.N,GND*%
X134620000Y-99060000D03*
D11*
%TO.P,D1,2,A*%
%TO.N,Net-(D1-Pad2)*%
X132080000Y-99060000D03*
%TD*%
D12*
%TO.P,R1,1*%
%TO.N,LED_1*%
X132080000Y-90805000D03*
D13*
%TO.P,R1,2*%
%TO.N,Net-(D1-Pad2)*%
X137160000Y-90805000D03*
%TD*%
D12*
%TO.P,R2,1*%
%TO.N,LED_2*%
X134620000Y-93345000D03*
D13*
%TO.P,R2,2*%
%TO.N,Net-(D2-Pad2)*%
X139700000Y-93345000D03*
%TD*%
D14*
%TO.P,J1,1,Pin_1*%
%TO.N,GND*%
X126365000Y-102870000D03*
D15*
%TO.P,J1,2,Pin_2*%
%TO.N,LED_3*%
X126365000Y-100330000D03*
%TO.P,J1,3,Pin_3*%
%TO.N,LED_2*%
X126365000Y-97790000D03*
%TO.P,J1,4,Pin_4*%
%TO.N,LED_1*%
X126365000Y-95250000D03*
%TD*%
%TA.AperFunction,Conductor*%
%TO.N,GND*%
G36*
X131733580Y-89428502D02*
G01*
X131780073Y-89482158D01*
X131790177Y-89552432D01*
X131760683Y-89617012D01*
X131698070Y-89656207D01*
X131670400Y-89663621D01*
X131670398Y-89663622D01*
X131665090Y-89665044D01*
X131660109Y-89667366D01*
X131660108Y-89667367D01*
X131478423Y-89752088D01*
X131478420Y-89752090D01*
X131473442Y-89754411D01*
X131300224Y-89875699D01*
X131150699Y-90025224D01*
X131029411Y-90198442D01*
X131027090Y-90203420D01*
X131027088Y-90203423D01*
X131017843Y-90223250D01*
X130940044Y-90390090D01*
X130885314Y-90594345D01*
X130866884Y-90805000D01*
X130885314Y-91015655D01*
X130886738Y-91020968D01*
X130886738Y-91020970D01*
X130900777Y-91073362D01*
X130940044Y-91219910D01*
X130942366Y-91224891D01*
X130942367Y-91224892D01*
X130973185Y-91290980D01*
X131029411Y-91411558D01*
X131150699Y-91584776D01*
X131300224Y-91734301D01*
X131473442Y-91855589D01*
X131478420Y-91857910D01*
X131478423Y-91857912D01*
X131660108Y-91942633D01*
X131665090Y-91944956D01*
X131670398Y-91946378D01*
X131670400Y-91946379D01*
X131864030Y-91998262D01*
X131864032Y-91998262D01*
X131869345Y-91999686D01*
X132080000Y-92018116D01*
X132290655Y-91999686D01*
X132295968Y-91998262D01*
X132295970Y-91998262D01*
X132489600Y-91946379D01*
X132489602Y-91946378D01*
X132494910Y-91944956D01*
X132499892Y-91942633D01*
X132681577Y-91857912D01*
X132681580Y-91857910D01*
X132686558Y-91855589D01*
X132859776Y-91734301D01*
X133009301Y-91584776D01*
X133130589Y-91411558D01*
X133186816Y-91290980D01*
X133217633Y-91224892D01*
X133217634Y-91224891D01*
X133219956Y-91219910D01*
X133259224Y-91073362D01*
X133273262Y-91020970D01*
X133273262Y-91020968D01*
X133274686Y-91015655D01*
X133293116Y-90805000D01*
X133274686Y-90594345D01*
X133219956Y-90390090D01*
X133142157Y-90223250D01*
X133132912Y-90203423D01*
X133132910Y-90203420D01*
X133130589Y-90198442D01*
X133009301Y-90025224D01*
X132859776Y-89875699D01*
X132686558Y-89754411D01*
X132681580Y-89752090D01*
X132681577Y-89752088D01*
X132499892Y-89667367D01*
X132499891Y-89667366D01*
X132494910Y-89665044D01*
X132489602Y-89663622D01*
X132489600Y-89663621D01*
X132461930Y-89656207D01*
X132401307Y-89619255D01*
X132370286Y-89555394D01*
X132378714Y-89484900D01*
X132423917Y-89430153D01*
X132494541Y-89408500D01*
X136745459Y-89408500D01*
X136813580Y-89428502D01*
X136860073Y-89482158D01*
X136870177Y-89552432D01*
X136840683Y-89617012D01*
X136778070Y-89656207D01*
X136750400Y-89663621D01*
X136750398Y-89663622D01*
X136745090Y-89665044D01*
X136740109Y-89667366D01*
X136740108Y-89667367D01*
X136558423Y-89752088D01*
X136558420Y-89752090D01*
X136553442Y-89754411D01*
X136380224Y-89875699D01*
X136230699Y-90025224D01*
X136109411Y-90198442D01*
X136107090Y-90203420D01*
X136107088Y-90203423D01*
X136097843Y-90223250D01*
X136020044Y-90390090D01*
X135965314Y-90594345D01*
X135946884Y-90805000D01*
X135965314Y-91015655D01*
X135966738Y-91020968D01*
X135966738Y-91020970D01*
X135980777Y-91073362D01*
X136020044Y-91219910D01*
X136022366Y-91224891D01*
X136022367Y-91224892D01*
X136053185Y-91290980D01*
X136109411Y-91411558D01*
X136230699Y-91584776D01*
X136380224Y-91734301D01*
X136553442Y-91855589D01*
X136558420Y-91857910D01*
X136558423Y-91857912D01*
X136740108Y-91942633D01*
X136745090Y-91944956D01*
X136750398Y-91946378D01*
X136750400Y-91946379D01*
X136944030Y-91998262D01*
X136944032Y-91998262D01*
X136949345Y-91999686D01*
X137160000Y-92018116D01*
X137370655Y-91999686D01*
X137375968Y-91998262D01*
X137375970Y-91998262D01*
X137569600Y-91946379D01*
X137569602Y-91946378D01*
X137574910Y-91944956D01*
X137579892Y-91942633D01*
X137761577Y-91857912D01*
X137761580Y-91857910D01*
X137766558Y-91855589D01*
X137939776Y-91734301D01*
X138089301Y-91584776D01*
X138115293Y-91547655D01*
X150639858Y-91547655D01*
X150675104Y-91806638D01*
X150676412Y-91811124D01*
X150676412Y-91811126D01*
X150690049Y-91857912D01*
X150748243Y-92057567D01*
X150857668Y-92294928D01*
X150860231Y-92298837D01*
X150998410Y-92509596D01*
X150998414Y-92509601D01*
X151000976Y-92513509D01*
X151175018Y-92708506D01*
X151375970Y-92875637D01*
X151379973Y-92878066D01*
X151595422Y-93008804D01*
X151595426Y-93008806D01*
X151599419Y-93011229D01*
X151840455Y-93112303D01*
X152093783Y-93176641D01*
X152098434Y-93177109D01*
X152098438Y-93177110D01*
X152291308Y-93196531D01*
X152310867Y-93198500D01*
X152466354Y-93198500D01*
X152468679Y-93198327D01*
X152468685Y-93198327D01*
X152656000Y-93184407D01*
X152656004Y-93184406D01*
X152660652Y-93184061D01*
X152665200Y-93183032D01*
X152665206Y-93183031D01*
X152856146Y-93139825D01*
X152915577Y-93126377D01*
X152951769Y-93112303D01*
X153154824Y-93033340D01*
X153154827Y-93033339D01*
X153159177Y-93031647D01*
X153386098Y-92901951D01*
X153591357Y-92740138D01*
X153770443Y-92549763D01*
X153919424Y-92335009D01*
X153939445Y-92294411D01*
X154032960Y-92104781D01*
X154032961Y-92104778D01*
X154035025Y-92100593D01*
X154084845Y-91944956D01*
X154113280Y-91856123D01*
X154114707Y-91851665D01*
X154156721Y-91593693D01*
X154160142Y-91332345D01*
X154124896Y-91073362D01*
X154110473Y-91023877D01*
X154053068Y-90826932D01*
X154051757Y-90822433D01*
X153942332Y-90585072D01*
X153817978Y-90395400D01*
X153801590Y-90370404D01*
X153801586Y-90370399D01*
X153799024Y-90366491D01*
X153624982Y-90171494D01*
X153424030Y-90004363D01*
X153376844Y-89975730D01*
X153204578Y-89871196D01*
X153204574Y-89871194D01*
X153200581Y-89868771D01*
X152959545Y-89767697D01*
X152706217Y-89703359D01*
X152701566Y-89702891D01*
X152701562Y-89702890D01*
X152492271Y-89681816D01*
X152489133Y-89681500D01*
X152333646Y-89681500D01*
X152331321Y-89681673D01*
X152331315Y-89681673D01*
X152144000Y-89695593D01*
X152143996Y-89695594D01*
X152139348Y-89695939D01*
X152134800Y-89696968D01*
X152134794Y-89696969D01*
X151956396Y-89737337D01*
X151884423Y-89753623D01*
X151880071Y-89755315D01*
X151880069Y-89755316D01*
X151645176Y-89846660D01*
X151645173Y-89846661D01*
X151640823Y-89848353D01*
X151636769Y-89850670D01*
X151636767Y-89850671D01*
X151567144Y-89890464D01*
X151413902Y-89978049D01*
X151208643Y-90139862D01*
X151029557Y-90330237D01*
X150880576Y-90544991D01*
X150764975Y-90779407D01*
X150685293Y-91028335D01*
X150643279Y-91286307D01*
X150643218Y-91290980D01*
X150641581Y-91416063D01*
X150639858Y-91547655D01*
X138115293Y-91547655D01*
X138210589Y-91411558D01*
X138266816Y-91290980D01*
X138297633Y-91224892D01*
X138297634Y-91224891D01*
X138299956Y-91219910D01*
X138339224Y-91073362D01*
X138353262Y-91020970D01*
X138353262Y-91020968D01*
X138354686Y-91015655D01*
X138373116Y-90805000D01*
X138354686Y-90594345D01*
X138299956Y-90390090D01*
X138222157Y-90223250D01*
X138212912Y-90203423D01*
X138212910Y-90203420D01*
X138210589Y-90198442D01*
X138089301Y-90025224D01*
X137939776Y-89875699D01*
X137766558Y-89754411D01*
X137761580Y-89752090D01*
X137761577Y-89752088D01*
X137579892Y-89667367D01*
X137579891Y-89667366D01*
X137574910Y-89665044D01*
X137569602Y-89663622D01*
X137569600Y-89663621D01*
X137541930Y-89656207D01*
X137481307Y-89619255D01*
X137450286Y-89555394D01*
X137458714Y-89484900D01*
X137503917Y-89430153D01*
X137574541Y-89408500D01*
X153620633Y-89408500D01*
X153640018Y-89410000D01*
X153654852Y-89412310D01*
X153654855Y-89412310D01*
X153663724Y-89413691D01*
X153673659Y-89412392D01*
X153674746Y-89412250D01*
X153703431Y-89411793D01*
X153776741Y-89419013D01*
X153806212Y-89421916D01*
X153830432Y-89426733D01*
X153949546Y-89462866D01*
X153972355Y-89472315D01*
X154082124Y-89530987D01*
X154102655Y-89544705D01*
X154198876Y-89623671D01*
X154216329Y-89641124D01*
X154295295Y-89737345D01*
X154309013Y-89757876D01*
X154367685Y-89867645D01*
X154377134Y-89890454D01*
X154413267Y-90009568D01*
X154418084Y-90033789D01*
X154427541Y-90129809D01*
X154427091Y-90145868D01*
X154427800Y-90145877D01*
X154427690Y-90154853D01*
X154426309Y-90163724D01*
X154427473Y-90172626D01*
X154427473Y-90172628D01*
X154430436Y-90195283D01*
X154431500Y-90211621D01*
X154431500Y-107900633D01*
X154430000Y-107920018D01*
X154426309Y-107943724D01*
X154427473Y-107952626D01*
X154427750Y-107954746D01*
X154428207Y-107983431D01*
X154427289Y-107992755D01*
X154418084Y-108086212D01*
X154413267Y-108110432D01*
X154377134Y-108229546D01*
X154367685Y-108252355D01*
X154309013Y-108362124D01*
X154295295Y-108382655D01*
X154216329Y-108478876D01*
X154198876Y-108496329D01*
X154102655Y-108575295D01*
X154082124Y-108589013D01*
X153972355Y-108647685D01*
X153949546Y-108657134D01*
X153830432Y-108693267D01*
X153806211Y-108698084D01*
X153710191Y-108707541D01*
X153694132Y-108707091D01*
X153694123Y-108707800D01*
X153685147Y-108707690D01*
X153676276Y-108706309D01*
X153667374Y-108707473D01*
X153667372Y-108707473D01*
X153654856Y-108709110D01*
X153644714Y-108710436D01*
X153628379Y-108711500D01*
X125779367Y-108711500D01*
X125759982Y-108710000D01*
X125745148Y-108707690D01*
X125745145Y-108707690D01*
X125736276Y-108706309D01*
X125726341Y-108707608D01*
X125725254Y-108707750D01*
X125696569Y-108708207D01*
X125623259Y-108700987D01*
X125593788Y-108698084D01*
X125569568Y-108693267D01*
X125450454Y-108657134D01*
X125427645Y-108647685D01*
X125317876Y-108589013D01*
X125297345Y-108575295D01*
X125201124Y-108496329D01*
X125183671Y-108478876D01*
X125104705Y-108382655D01*
X125090987Y-108362124D01*
X125032315Y-108252355D01*
X125022866Y-108229546D01*
X124986733Y-108110432D01*
X124981916Y-108086212D01*
X124972711Y-107992755D01*
X124972607Y-107969151D01*
X124972768Y-107967354D01*
X124973576Y-107962552D01*
X124973729Y-107950000D01*
X124969773Y-107922376D01*
X124968500Y-107904514D01*
X124968500Y-106787655D01*
X125239858Y-106787655D01*
X125275104Y-107046638D01*
X125276412Y-107051124D01*
X125276412Y-107051126D01*
X125296098Y-107118664D01*
X125348243Y-107297567D01*
X125457668Y-107534928D01*
X125460231Y-107538837D01*
X125598410Y-107749596D01*
X125598414Y-107749601D01*
X125600976Y-107753509D01*
X125775018Y-107948506D01*
X125975970Y-108115637D01*
X125979973Y-108118066D01*
X126195422Y-108248804D01*
X126195426Y-108248806D01*
X126199419Y-108251229D01*
X126440455Y-108352303D01*
X126693783Y-108416641D01*
X126698434Y-108417109D01*
X126698438Y-108417110D01*
X126891308Y-108436531D01*
X126910867Y-108438500D01*
X127066354Y-108438500D01*
X127068679Y-108438327D01*
X127068685Y-108438327D01*
X127256000Y-108424407D01*
X127256004Y-108424406D01*
X127260652Y-108424061D01*
X127265200Y-108423032D01*
X127265206Y-108423031D01*
X127451601Y-108380853D01*
X127515577Y-108366377D01*
X127551769Y-108352303D01*
X127754824Y-108273340D01*
X127754827Y-108273339D01*
X127759177Y-108271647D01*
X127986098Y-108141951D01*
X128191357Y-107980138D01*
X128370443Y-107789763D01*
X128519424Y-107575009D01*
X128635025Y-107340593D01*
X128714707Y-107091665D01*
X128756721Y-106833693D01*
X128757324Y-106787655D01*
X150639858Y-106787655D01*
X150675104Y-107046638D01*
X150676412Y-107051124D01*
X150676412Y-107051126D01*
X150696098Y-107118664D01*
X150748243Y-107297567D01*
X150857668Y-107534928D01*
X150860231Y-107538837D01*
X150998410Y-107749596D01*
X150998414Y-107749601D01*
X151000976Y-107753509D01*
X151175018Y-107948506D01*
X151375970Y-108115637D01*
X151379973Y-108118066D01*
X151595422Y-108248804D01*
X151595426Y-108248806D01*
X151599419Y-108251229D01*
X151840455Y-108352303D01*
X152093783Y-108416641D01*
X152098434Y-108417109D01*
X152098438Y-108417110D01*
X152291308Y-108436531D01*
X152310867Y-108438500D01*
X152466354Y-108438500D01*
X152468679Y-108438327D01*
X152468685Y-108438327D01*
X152656000Y-108424407D01*
X152656004Y-108424406D01*
X152660652Y-108424061D01*
X152665200Y-108423032D01*
X152665206Y-108423031D01*
X152851601Y-108380853D01*
X152915577Y-108366377D01*
X152951769Y-108352303D01*
X153154824Y-108273340D01*
X153154827Y-108273339D01*
X153159177Y-108271647D01*
X153386098Y-108141951D01*
X153591357Y-107980138D01*
X153770443Y-107789763D01*
X153919424Y-107575009D01*
X154035025Y-107340593D01*
X154114707Y-107091665D01*
X154156721Y-106833693D01*
X154160142Y-106572345D01*
X154124896Y-106313362D01*
X154110473Y-106263877D01*
X154053068Y-106066932D01*
X154051757Y-106062433D01*
X153942332Y-105825072D01*
X153909519Y-105775024D01*
X153801590Y-105610404D01*
X153801586Y-105610399D01*
X153799024Y-105606491D01*
X153624982Y-105411494D01*
X153424030Y-105244363D01*
X153376844Y-105215730D01*
X153204578Y-105111196D01*
X153204574Y-105111194D01*
X153200581Y-105108771D01*
X152959545Y-105007697D01*
X152706217Y-104943359D01*
X152701566Y-104942891D01*
X152701562Y-104942890D01*
X152492271Y-104921816D01*
X152489133Y-104921500D01*
X152333646Y-104921500D01*
X152331321Y-104921673D01*
X152331315Y-104921673D01*
X152144000Y-104935593D01*
X152143996Y-104935594D01*
X152139348Y-104935939D01*
X152134800Y-104936968D01*
X152134794Y-104936969D01*
X151948399Y-104979147D01*
X151884423Y-104993623D01*
X151880071Y-104995315D01*
X151880069Y-104995316D01*
X151645176Y-105086660D01*
X151645173Y-105086661D01*
X151640823Y-105088353D01*
X151413902Y-105218049D01*
X151208643Y-105379862D01*
X151029557Y-105570237D01*
X150880576Y-105784991D01*
X150764975Y-106019407D01*
X150685293Y-106268335D01*
X150643279Y-106526307D01*
X150639858Y-106787655D01*
X128757324Y-106787655D01*
X128760142Y-106572345D01*
X128724896Y-106313362D01*
X128710473Y-106263877D01*
X128653068Y-106066932D01*
X128651757Y-106062433D01*
X128542332Y-105825072D01*
X128509519Y-105775024D01*
X128401590Y-105610404D01*
X128401586Y-105610399D01*
X128399024Y-105606491D01*
X128224982Y-105411494D01*
X128024030Y-105244363D01*
X127976844Y-105215730D01*
X127804578Y-105111196D01*
X127804574Y-105111194D01*
X127800581Y-105108771D01*
X127559545Y-105007697D01*
X127306217Y-104943359D01*
X127301566Y-104942891D01*
X127301562Y-104942890D01*
X127092271Y-104921816D01*
X127089133Y-104921500D01*
X126933646Y-104921500D01*
X126931321Y-104921673D01*
X126931315Y-104921673D01*
X126744000Y-104935593D01*
X126743996Y-104935594D01*
X126739348Y-104935939D01*
X126734800Y-104936968D01*
X126734794Y-104936969D01*
X126548399Y-104979147D01*
X126484423Y-104993623D01*
X126480071Y-104995315D01*
X126480069Y-104995316D01*
X126245176Y-105086660D01*
X126245173Y-105086661D01*
X126240823Y-105088353D01*
X126013902Y-105218049D01*
X125808643Y-105379862D01*
X125629557Y-105570237D01*
X125480576Y-105784991D01*
X125364975Y-106019407D01*
X125285293Y-106268335D01*
X125243279Y-106526307D01*
X125239858Y-106787655D01*
X124968500Y-106787655D01*
X124968500Y-104197197D01*
X124988502Y-104129076D01*
X125042158Y-104082583D01*
X125112432Y-104072479D01*
X125170065Y-104096371D01*
X125261351Y-104164786D01*
X125276946Y-104173324D01*
X125397394Y-104218478D01*
X125412649Y-104222105D01*
X125463514Y-104227631D01*
X125470328Y-104228000D01*
X126092885Y-104228000D01*
X126108124Y-104223525D01*
X126109329Y-104222135D01*
X126111000Y-104214452D01*
X126111000Y-104209884D01*
X126619000Y-104209884D01*
X126623475Y-104225123D01*
X126624865Y-104226328D01*
X126632548Y-104227999D01*
X127259669Y-104227999D01*
X127266490Y-104227629D01*
X127317352Y-104222105D01*
X127332604Y-104218479D01*
X127453054Y-104173324D01*
X127468649Y-104164786D01*
X127570724Y-104088285D01*
X127583285Y-104075724D01*
X127659786Y-103973649D01*
X127668324Y-103958054D01*
X127713478Y-103837606D01*
X127717105Y-103822351D01*
X127722631Y-103771486D01*
X127723000Y-103764672D01*
X127723000Y-103142115D01*
X127718525Y-103126876D01*
X127717135Y-103125671D01*
X127709452Y-103124000D01*
X126637115Y-103124000D01*
X126621876Y-103128475D01*
X126620671Y-103129865D01*
X126619000Y-103137548D01*
X126619000Y-104209884D01*
X126111000Y-104209884D01*
X126111000Y-102870000D01*
X137216884Y-102870000D01*
X137235314Y-103080655D01*
X137290044Y-103284910D01*
X137379411Y-103476558D01*
X137500699Y-103649776D01*
X137650224Y-103799301D01*
X137823442Y-103920589D01*
X137828420Y-103922910D01*
X137828423Y-103922912D01*
X137937229Y-103973649D01*
X138015090Y-104009956D01*
X138020398Y-104011378D01*
X138020400Y-104011379D01*
X138214030Y-104063262D01*
X138214032Y-104063262D01*
X138219345Y-104064686D01*
X138430000Y-104083116D01*
X138640655Y-104064686D01*
X138645968Y-104063262D01*
X138645970Y-104063262D01*
X138839600Y-104011379D01*
X138839602Y-104011378D01*
X138844910Y-104009956D01*
X138922771Y-103973649D01*
X139031577Y-103922912D01*
X139031580Y-103922910D01*
X139036558Y-103920589D01*
X139209776Y-103799301D01*
X139359301Y-103649776D01*
X139480589Y-103476558D01*
X139569956Y-103284910D01*
X139624686Y-103080655D01*
X139643116Y-102870000D01*
X142296884Y-102870000D01*
X142315314Y-103080655D01*
X142370044Y-103284910D01*
X142459411Y-103476558D01*
X142580699Y-103649776D01*
X142730224Y-103799301D01*
X142903442Y-103920589D01*
X142908420Y-103922910D01*
X142908423Y-103922912D01*
X143017229Y-103973649D01*
X143095090Y-104009956D01*
X143100398Y-104011378D01*
X143100400Y-104011379D01*
X143294030Y-104063262D01*
X143294032Y-104063262D01*
X143299345Y-104064686D01*
X143510000Y-104083116D01*
X143720655Y-104064686D01*
X143725968Y-104063262D01*
X143725970Y-104063262D01*
X143919600Y-104011379D01*
X143919602Y-104011378D01*
X143924910Y-104009956D01*
X144002771Y-103973649D01*
X144111577Y-103922912D01*
X144111580Y-103922910D01*
X144116558Y-103920589D01*
X144289776Y-103799301D01*
X144439301Y-103649776D01*
X144560589Y-103476558D01*
X144649956Y-103284910D01*
X144704686Y-103080655D01*
X144723116Y-102870000D01*
X144704686Y-102659345D01*
X144649956Y-102455090D01*
X144560589Y-102263442D01*
X144439301Y-102090224D01*
X144289776Y-101940699D01*
X144116558Y-101819411D01*
X144111580Y-101817090D01*
X144111577Y-101817088D01*
X143929892Y-101732367D01*
X143929891Y-101732366D01*
X143924910Y-101730044D01*
X143919602Y-101728622D01*
X143919600Y-101728621D01*
X143725970Y-101676738D01*
X143725968Y-101676738D01*
X143720655Y-101675314D01*
X143510000Y-101656884D01*
X143299345Y-101675314D01*
X143294032Y-101676738D01*
X143294030Y-101676738D01*
X143100400Y-101728621D01*
X143100398Y-101728622D01*
X143095090Y-101730044D01*
X143090109Y-101732366D01*
X143090108Y-101732367D01*
X142908423Y-101817088D01*
X142908420Y-101817090D01*
X142903442Y-101819411D01*
X142730224Y-101940699D01*
X142580699Y-102090224D01*
X142459411Y-102263442D01*
X142370044Y-102455090D01*
X142315314Y-102659345D01*
X142296884Y-102870000D01*
X139643116Y-102870000D01*
X139624686Y-102659345D01*
X139569956Y-102455090D01*
X139480589Y-102263442D01*
X139359301Y-102090224D01*
X139209776Y-101940699D01*
X139036558Y-101819411D01*
X139031580Y-101817090D01*
X139031577Y-101817088D01*
X138849892Y-101732367D01*
X138849891Y-101732366D01*
X138844910Y-101730044D01*
X138839602Y-101728622D01*
X138839600Y-101728621D01*
X138645970Y-101676738D01*
X138645968Y-101676738D01*
X138640655Y-101675314D01*
X138430000Y-101656884D01*
X138219345Y-101675314D01*
X138214032Y-101676738D01*
X138214030Y-101676738D01*
X138020400Y-101728621D01*
X138020398Y-101728622D01*
X138015090Y-101730044D01*
X138010109Y-101732366D01*
X138010108Y-101732367D01*
X137828423Y-101817088D01*
X137828420Y-101817090D01*
X137823442Y-101819411D01*
X137650224Y-101940699D01*
X137500699Y-102090224D01*
X137379411Y-102263442D01*
X137290044Y-102455090D01*
X137235314Y-102659345D01*
X137216884Y-102870000D01*
X126111000Y-102870000D01*
X126111000Y-102742000D01*
X126131002Y-102673879D01*
X126184658Y-102627386D01*
X126237000Y-102616000D01*
X127704884Y-102616000D01*
X127720123Y-102611525D01*
X127721328Y-102610135D01*
X127722999Y-102602452D01*
X127722999Y-101975331D01*
X127722629Y-101968510D01*
X127717105Y-101917648D01*
X127713479Y-101902396D01*
X127668324Y-101781946D01*
X127659786Y-101766351D01*
X127583285Y-101664276D01*
X127570724Y-101651715D01*
X127468649Y-101575214D01*
X127453054Y-101566676D01*
X127342813Y-101525348D01*
X127286049Y-101482706D01*
X127261349Y-101416145D01*
X127276557Y-101346796D01*
X127298104Y-101318115D01*
X127399430Y-101217144D01*
X127399440Y-101217132D01*
X127403096Y-101213489D01*
X127533453Y-101032077D01*
X127562498Y-100973310D01*
X127630136Y-100836453D01*
X127630137Y-100836451D01*
X127632430Y-100831811D01*
X127697370Y-100618069D01*
X127726529Y-100396590D01*
X127728156Y-100330000D01*
X127709852Y-100107361D01*
X127655431Y-99890702D01*
X127566354Y-99685840D01*
X127445014Y-99498277D01*
X127294670Y-99333051D01*
X127290619Y-99329852D01*
X127290615Y-99329848D01*
X127123414Y-99197800D01*
X127123410Y-99197798D01*
X127119359Y-99194598D01*
X127078053Y-99171796D01*
X127028084Y-99121364D01*
X127013312Y-99051921D01*
X127023317Y-99025469D01*
X130667095Y-99025469D01*
X130667392Y-99030622D01*
X130667392Y-99030625D01*
X130677031Y-99197800D01*
X130680427Y-99256697D01*
X130681564Y-99261743D01*
X130681565Y-99261749D01*
X130696394Y-99327548D01*
X130731346Y-99482642D01*
X130733288Y-99487424D01*
X130733289Y-99487428D01*
X130812389Y-99682228D01*
X130818484Y-99697237D01*
X130939501Y-99894719D01*
X131091147Y-100069784D01*
X131269349Y-100217730D01*
X131469322Y-100334584D01*
X131685694Y-100417209D01*
X131690760Y-100418240D01*
X131690761Y-100418240D01*
X131743846Y-100429040D01*
X131912656Y-100463385D01*
X132043324Y-100468176D01*
X132138949Y-100471683D01*
X132138953Y-100471683D01*
X132144113Y-100471872D01*
X132149233Y-100471216D01*
X132149235Y-100471216D01*
X132248668Y-100458478D01*
X132373847Y-100442442D01*
X132378795Y-100440957D01*
X132378802Y-100440956D01*
X132590747Y-100377369D01*
X132595690Y-100375886D01*
X132676236Y-100336427D01*
X132799049Y-100276262D01*
X132799052Y-100276260D01*
X132803684Y-100273991D01*
X132992243Y-100139494D01*
X132995898Y-100135852D01*
X132995906Y-100135845D01*
X133037697Y-100094199D01*
X133100068Y-100060282D01*
X133170875Y-100065470D01*
X133227637Y-100108116D01*
X133244619Y-100139218D01*
X133266677Y-100198056D01*
X133275214Y-100213649D01*
X133351715Y-100315724D01*
X133364276Y-100328285D01*
X133466351Y-100404786D01*
X133481946Y-100413324D01*
X133602394Y-100458478D01*
X133617649Y-100462105D01*
X133668514Y-100467631D01*
X133675328Y-100468000D01*
X134347885Y-100468000D01*
X134363124Y-100463525D01*
X134364329Y-100462135D01*
X134366000Y-100454452D01*
X134366000Y-100449884D01*
X134874000Y-100449884D01*
X134878475Y-100465123D01*
X134879865Y-100466328D01*
X134887548Y-100467999D01*
X135564669Y-100467999D01*
X135571490Y-100467629D01*
X135622352Y-100462105D01*
X135637604Y-100458479D01*
X135758054Y-100413324D01*
X135773649Y-100404786D01*
X135875724Y-100328285D01*
X135888285Y-100315724D01*
X135964786Y-100213649D01*
X135973324Y-100198054D01*
X136018478Y-100077606D01*
X136022105Y-100062351D01*
X136027631Y-100011486D01*
X136028000Y-100004672D01*
X136028000Y-99332115D01*
X136023525Y-99316876D01*
X136022135Y-99315671D01*
X136014452Y-99314000D01*
X134892115Y-99314000D01*
X134876876Y-99318475D01*
X134875671Y-99319865D01*
X134874000Y-99327548D01*
X134874000Y-100449884D01*
X134366000Y-100449884D01*
X134366000Y-99025469D01*
X136687095Y-99025469D01*
X136687392Y-99030622D01*
X136687392Y-99030625D01*
X136697031Y-99197800D01*
X136700427Y-99256697D01*
X136701564Y-99261743D01*
X136701565Y-99261749D01*
X136716394Y-99327548D01*
X136751346Y-99482642D01*
X136753288Y-99487424D01*
X136753289Y-99487428D01*
X136832389Y-99682228D01*
X136838484Y-99697237D01*
X136959501Y-99894719D01*
X137111147Y-100069784D01*
X137289349Y-100217730D01*
X137489322Y-100334584D01*
X137705694Y-100417209D01*
X137710760Y-100418240D01*
X137710761Y-100418240D01*
X137763846Y-100429040D01*
X137932656Y-100463385D01*
X138063324Y-100468176D01*
X138158949Y-100471683D01*
X138158953Y-100471683D01*
X138164113Y-100471872D01*
X138169233Y-100471216D01*
X138169235Y-100471216D01*
X138268668Y-100458478D01*
X138393847Y-100442442D01*
X138398795Y-100440957D01*
X138398802Y-100440956D01*
X138610747Y-100377369D01*
X138615690Y-100375886D01*
X138696236Y-100336427D01*
X138819049Y-100276262D01*
X138819052Y-100276260D01*
X138823684Y-100273991D01*
X139012243Y-100139494D01*
X139015898Y-100135852D01*
X139015906Y-100135845D01*
X139057697Y-100094199D01*
X139120068Y-100060282D01*
X139190875Y-100065470D01*
X139247637Y-100108116D01*
X139264619Y-100139218D01*
X139286677Y-100198056D01*
X139295214Y-100213649D01*
X139371715Y-100315724D01*
X139384276Y-100328285D01*
X139486351Y-100404786D01*
X139501946Y-100413324D01*
X139622394Y-100458478D01*
X139637649Y-100462105D01*
X139688514Y-100467631D01*
X139695328Y-100468000D01*
X140367885Y-100468000D01*
X140383124Y-100463525D01*
X140384329Y-100462135D01*
X140386000Y-100454452D01*
X140386000Y-100449884D01*
X140894000Y-100449884D01*
X140898475Y-100465123D01*
X140899865Y-100466328D01*
X140907548Y-100467999D01*
X141584669Y-100467999D01*
X141591490Y-100467629D01*
X141642352Y-100462105D01*
X141657604Y-100458479D01*
X141778054Y-100413324D01*
X141793649Y-100404786D01*
X141895724Y-100328285D01*
X141908285Y-100315724D01*
X141984786Y-100213649D01*
X141993324Y-100198054D01*
X142038478Y-100077606D01*
X142042105Y-100062351D01*
X142047631Y-100011486D01*
X142048000Y-100004672D01*
X142048000Y-99332115D01*
X142043525Y-99316876D01*
X142042135Y-99315671D01*
X142034452Y-99314000D01*
X140912115Y-99314000D01*
X140896876Y-99318475D01*
X140895671Y-99319865D01*
X140894000Y-99327548D01*
X140894000Y-100449884D01*
X140386000Y-100449884D01*
X140386000Y-99025469D01*
X143037095Y-99025469D01*
X143037392Y-99030622D01*
X143037392Y-99030625D01*
X143047031Y-99197800D01*
X143050427Y-99256697D01*
X143051564Y-99261743D01*
X143051565Y-99261749D01*
X143066394Y-99327548D01*
X143101346Y-99482642D01*
X143103288Y-99487424D01*
X143103289Y-99487428D01*
X143182389Y-99682228D01*
X143188484Y-99697237D01*
X143309501Y-99894719D01*
X143461147Y-100069784D01*
X143639349Y-100217730D01*
X143839322Y-100334584D01*
X144055694Y-100417209D01*
X144060760Y-100418240D01*
X144060761Y-100418240D01*
X144113846Y-100429040D01*
X144282656Y-100463385D01*
X144413324Y-100468176D01*
X144508949Y-100471683D01*
X144508953Y-100471683D01*
X144514113Y-100471872D01*
X144519233Y-100471216D01*
X144519235Y-100471216D01*
X144618668Y-100458478D01*
X144743847Y-100442442D01*
X144748795Y-100440957D01*
X144748802Y-100440956D01*
X144960747Y-100377369D01*
X144965690Y-100375886D01*
X145046236Y-100336427D01*
X145169049Y-100276262D01*
X145169052Y-100276260D01*
X145173684Y-100273991D01*
X145362243Y-100139494D01*
X145365898Y-100135852D01*
X145365906Y-100135845D01*
X145407697Y-100094199D01*
X145470068Y-100060282D01*
X145540875Y-100065470D01*
X145597637Y-100108116D01*
X145614619Y-100139218D01*
X145636677Y-100198056D01*
X145645214Y-100213649D01*
X145721715Y-100315724D01*
X145734276Y-100328285D01*
X145836351Y-100404786D01*
X145851946Y-100413324D01*
X145972394Y-100458478D01*
X145987649Y-100462105D01*
X146038514Y-100467631D01*
X146045328Y-100468000D01*
X146717885Y-100468000D01*
X146733124Y-100463525D01*
X146734329Y-100462135D01*
X146736000Y-100454452D01*
X146736000Y-100449884D01*
X147244000Y-100449884D01*
X147248475Y-100465123D01*
X147249865Y-100466328D01*
X147257548Y-100467999D01*
X147934669Y-100467999D01*
X147941490Y-100467629D01*
X147992352Y-100462105D01*
X148007604Y-100458479D01*
X148128054Y-100413324D01*
X148143649Y-100404786D01*
X148245724Y-100328285D01*
X148258285Y-100315724D01*
X148334786Y-100213649D01*
X148343324Y-100198054D01*
X148388478Y-100077606D01*
X148392105Y-100062351D01*
X148397631Y-100011486D01*
X148398000Y-100004672D01*
X148398000Y-99332115D01*
X148393525Y-99316876D01*
X148392135Y-99315671D01*
X148384452Y-99314000D01*
X147262115Y-99314000D01*
X147246876Y-99318475D01*
X147245671Y-99319865D01*
X147244000Y-99327548D01*
X147244000Y-100449884D01*
X146736000Y-100449884D01*
X146736000Y-98787885D01*
X147244000Y-98787885D01*
X147248475Y-98803124D01*
X147249865Y-98804329D01*
X147257548Y-98806000D01*
X148379884Y-98806000D01*
X148395123Y-98801525D01*
X148396328Y-98800135D01*
X148397999Y-98792452D01*
X148397999Y-98115331D01*
X148397629Y-98108510D01*
X148392105Y-98057648D01*
X148388479Y-98042396D01*
X148343324Y-97921946D01*
X148334786Y-97906351D01*
X148258285Y-97804276D01*
X148245724Y-97791715D01*
X148143649Y-97715214D01*
X148128054Y-97706676D01*
X148007606Y-97661522D01*
X147992351Y-97657895D01*
X147941486Y-97652369D01*
X147934672Y-97652000D01*
X147262115Y-97652000D01*
X147246876Y-97656475D01*
X147245671Y-97657865D01*
X147244000Y-97665548D01*
X147244000Y-98787885D01*
X146736000Y-98787885D01*
X146736000Y-97670116D01*
X146731525Y-97654877D01*
X146730135Y-97653672D01*
X146722452Y-97652001D01*
X146045331Y-97652001D01*
X146038510Y-97652371D01*
X145987648Y-97657895D01*
X145972396Y-97661521D01*
X145851946Y-97706676D01*
X145836351Y-97715214D01*
X145734276Y-97791715D01*
X145721715Y-97804276D01*
X145645214Y-97906351D01*
X145636675Y-97921948D01*
X145615934Y-97977275D01*
X145573293Y-98034040D01*
X145506731Y-98058740D01*
X145437383Y-98043533D01*
X145414388Y-98026909D01*
X145413887Y-98026358D01*
X145380527Y-98000012D01*
X145236177Y-97886011D01*
X145236172Y-97886008D01*
X145232123Y-97882810D01*
X145227607Y-97880317D01*
X145227604Y-97880315D01*
X145033879Y-97773373D01*
X145033875Y-97773371D01*
X145029355Y-97770876D01*
X145024486Y-97769152D01*
X145024482Y-97769150D01*
X144815903Y-97695288D01*
X144815899Y-97695287D01*
X144811028Y-97693562D01*
X144805935Y-97692655D01*
X144805932Y-97692654D01*
X144588095Y-97653851D01*
X144588089Y-97653850D01*
X144583006Y-97652945D01*
X144505644Y-97652000D01*
X144356581Y-97650179D01*
X144356579Y-97650179D01*
X144351411Y-97650116D01*
X144122464Y-97685150D01*
X143902314Y-97757106D01*
X143897726Y-97759494D01*
X143897722Y-97759496D01*
X143701461Y-97861663D01*
X143696872Y-97864052D01*
X143692739Y-97867155D01*
X143692736Y-97867157D01*
X143515790Y-98000012D01*
X143511655Y-98003117D01*
X143351639Y-98170564D01*
X143221119Y-98361899D01*
X143123602Y-98571981D01*
X143061707Y-98795169D01*
X143037095Y-99025469D01*
X140386000Y-99025469D01*
X140386000Y-98787885D01*
X140894000Y-98787885D01*
X140898475Y-98803124D01*
X140899865Y-98804329D01*
X140907548Y-98806000D01*
X142029884Y-98806000D01*
X142045123Y-98801525D01*
X142046328Y-98800135D01*
X142047999Y-98792452D01*
X142047999Y-98115331D01*
X142047629Y-98108510D01*
X142042105Y-98057648D01*
X142038479Y-98042396D01*
X141993324Y-97921946D01*
X141984786Y-97906351D01*
X141908285Y-97804276D01*
X141895724Y-97791715D01*
X141793649Y-97715214D01*
X141778054Y-97706676D01*
X141657606Y-97661522D01*
X141642351Y-97657895D01*
X141591486Y-97652369D01*
X141584672Y-97652000D01*
X140912115Y-97652000D01*
X140896876Y-97656475D01*
X140895671Y-97657865D01*
X140894000Y-97665548D01*
X140894000Y-98787885D01*
X140386000Y-98787885D01*
X140386000Y-97670116D01*
X140381525Y-97654877D01*
X140380135Y-97653672D01*
X140372452Y-97652001D01*
X139695331Y-97652001D01*
X139688510Y-97652371D01*
X139637648Y-97657895D01*
X139622396Y-97661521D01*
X139501946Y-97706676D01*
X139486351Y-97715214D01*
X139384276Y-97791715D01*
X139371715Y-97804276D01*
X139295214Y-97906351D01*
X139286675Y-97921948D01*
X139265934Y-97977275D01*
X139223293Y-98034040D01*
X139156731Y-98058740D01*
X139087383Y-98043533D01*
X139064388Y-98026909D01*
X139063887Y-98026358D01*
X139030527Y-98000012D01*
X138886177Y-97886011D01*
X138886172Y-97886008D01*
X138882123Y-97882810D01*
X138877607Y-97880317D01*
X138877604Y-97880315D01*
X138683879Y-97773373D01*
X138683875Y-97773371D01*
X138679355Y-97770876D01*
X138674486Y-97769152D01*
X138674482Y-97769150D01*
X138465903Y-97695288D01*
X138465899Y-97695287D01*
X138461028Y-97693562D01*
X138455935Y-97692655D01*
X138455932Y-97692654D01*
X138238095Y-97653851D01*
X138238089Y-97653850D01*
X138233006Y-97652945D01*
X138155644Y-97652000D01*
X138006581Y-97650179D01*
X138006579Y-97650179D01*
X138001411Y-97650116D01*
X137772464Y-97685150D01*
X137552314Y-97757106D01*
X137547726Y-97759494D01*
X137547722Y-97759496D01*
X137351461Y-97861663D01*
X137346872Y-97864052D01*
X137342739Y-97867155D01*
X137342736Y-97867157D01*
X137165790Y-98000012D01*
X137161655Y-98003117D01*
X137001639Y-98170564D01*
X136871119Y-98361899D01*
X136773602Y-98571981D01*
X136711707Y-98795169D01*
X136687095Y-99025469D01*
X134366000Y-99025469D01*
X134366000Y-98787885D01*
X134874000Y-98787885D01*
X134878475Y-98803124D01*
X134879865Y-98804329D01*
X134887548Y-98806000D01*
X136009884Y-98806000D01*
X136025123Y-98801525D01*
X136026328Y-98800135D01*
X136027999Y-98792452D01*
X136027999Y-98115331D01*
X136027629Y-98108510D01*
X136022105Y-98057648D01*
X136018479Y-98042396D01*
X135973324Y-97921946D01*
X135964786Y-97906351D01*
X135888285Y-97804276D01*
X135875724Y-97791715D01*
X135773649Y-97715214D01*
X135758054Y-97706676D01*
X135637606Y-97661522D01*
X135622351Y-97657895D01*
X135571486Y-97652369D01*
X135564672Y-97652000D01*
X134892115Y-97652000D01*
X134876876Y-97656475D01*
X134875671Y-97657865D01*
X134874000Y-97665548D01*
X134874000Y-98787885D01*
X134366000Y-98787885D01*
X134366000Y-97670116D01*
X134361525Y-97654877D01*
X134360135Y-97653672D01*
X134352452Y-97652001D01*
X133675331Y-97652001D01*
X133668510Y-97652371D01*
X133617648Y-97657895D01*
X133602396Y-97661521D01*
X133481946Y-97706676D01*
X133466351Y-97715214D01*
X133364276Y-97791715D01*
X133351715Y-97804276D01*
X133275214Y-97906351D01*
X133266675Y-97921948D01*
X133245934Y-97977275D01*
X133203293Y-98034040D01*
X133136731Y-98058740D01*
X133067383Y-98043533D01*
X133044388Y-98026909D01*
X133043887Y-98026358D01*
X133010527Y-98000012D01*
X132866177Y-97886011D01*
X132866172Y-97886008D01*
X132862123Y-97882810D01*
X132857607Y-97880317D01*
X132857604Y-97880315D01*
X132663879Y-97773373D01*
X132663875Y-97773371D01*
X132659355Y-97770876D01*
X132654486Y-97769152D01*
X132654482Y-97769150D01*
X132445903Y-97695288D01*
X132445899Y-97695287D01*
X132441028Y-97693562D01*
X132435935Y-97692655D01*
X132435932Y-97692654D01*
X132218095Y-97653851D01*
X132218089Y-97653850D01*
X132213006Y-97652945D01*
X132135644Y-97652000D01*
X131986581Y-97650179D01*
X131986579Y-97650179D01*
X131981411Y-97650116D01*
X131752464Y-97685150D01*
X131532314Y-97757106D01*
X131527726Y-97759494D01*
X131527722Y-97759496D01*
X131331461Y-97861663D01*
X131326872Y-97864052D01*
X131322739Y-97867155D01*
X131322736Y-97867157D01*
X131145790Y-98000012D01*
X131141655Y-98003117D01*
X130981639Y-98170564D01*
X130851119Y-98361899D01*
X130753602Y-98571981D01*
X130691707Y-98795169D01*
X130667095Y-99025469D01*
X127023317Y-99025469D01*
X127038428Y-98985516D01*
X127065780Y-98958909D01*
X127109603Y-98927650D01*
X127244860Y-98831173D01*
X127285980Y-98790197D01*
X127399435Y-98677137D01*
X127403096Y-98673489D01*
X127476037Y-98571981D01*
X127530435Y-98496277D01*
X127533453Y-98492077D01*
X127562498Y-98433310D01*
X127630136Y-98296453D01*
X127630137Y-98296451D01*
X127632430Y-98291811D01*
X127697370Y-98078069D01*
X127726529Y-97856590D01*
X127728156Y-97790000D01*
X127709852Y-97567361D01*
X127655431Y-97350702D01*
X127566354Y-97145840D01*
X127445014Y-96958277D01*
X127294670Y-96793051D01*
X127290619Y-96789852D01*
X127290615Y-96789848D01*
X127123414Y-96657800D01*
X127123410Y-96657798D01*
X127119359Y-96654598D01*
X127078053Y-96631796D01*
X127028084Y-96581364D01*
X127013312Y-96511921D01*
X127038428Y-96445516D01*
X127065780Y-96418909D01*
X127109603Y-96387650D01*
X127244860Y-96291173D01*
X127403096Y-96133489D01*
X127533453Y-95952077D01*
X127562498Y-95893310D01*
X127630136Y-95756453D01*
X127630137Y-95756451D01*
X127632430Y-95751811D01*
X127697370Y-95538069D01*
X127726529Y-95316590D01*
X127728156Y-95250000D01*
X127709852Y-95027361D01*
X127655431Y-94810702D01*
X127566354Y-94605840D01*
X127445014Y-94418277D01*
X127294670Y-94253051D01*
X127290619Y-94249852D01*
X127290615Y-94249848D01*
X127123414Y-94117800D01*
X127123410Y-94117798D01*
X127119359Y-94114598D01*
X126923789Y-94006638D01*
X126918920Y-94004914D01*
X126918916Y-94004912D01*
X126718087Y-93933795D01*
X126718083Y-93933794D01*
X126713212Y-93932069D01*
X126708119Y-93931162D01*
X126708116Y-93931161D01*
X126498373Y-93893800D01*
X126498367Y-93893799D01*
X126493284Y-93892894D01*
X126419452Y-93891992D01*
X126275081Y-93890228D01*
X126275079Y-93890228D01*
X126269911Y-93890165D01*
X126049091Y-93923955D01*
X125836756Y-93993357D01*
X125638607Y-94096507D01*
X125634474Y-94099610D01*
X125634471Y-94099612D01*
X125464100Y-94227530D01*
X125459965Y-94230635D01*
X125305629Y-94392138D01*
X125302715Y-94396410D01*
X125302714Y-94396411D01*
X125198588Y-94549054D01*
X125143677Y-94594057D01*
X125073152Y-94602228D01*
X125009405Y-94570974D01*
X124972675Y-94510217D01*
X124968500Y-94478050D01*
X124968500Y-93345000D01*
X133406884Y-93345000D01*
X133425314Y-93555655D01*
X133480044Y-93759910D01*
X133482366Y-93764891D01*
X133482367Y-93764892D01*
X133559900Y-93931161D01*
X133569411Y-93951558D01*
X133690699Y-94124776D01*
X133840224Y-94274301D01*
X134013442Y-94395589D01*
X134018420Y-94397910D01*
X134018423Y-94397912D01*
X134190280Y-94478050D01*
X134205090Y-94484956D01*
X134210398Y-94486378D01*
X134210400Y-94486379D01*
X134404030Y-94538262D01*
X134404032Y-94538262D01*
X134409345Y-94539686D01*
X134620000Y-94558116D01*
X134830655Y-94539686D01*
X134835968Y-94538262D01*
X134835970Y-94538262D01*
X135029600Y-94486379D01*
X135029602Y-94486378D01*
X135034910Y-94484956D01*
X135049720Y-94478050D01*
X135221577Y-94397912D01*
X135221580Y-94397910D01*
X135226558Y-94395589D01*
X135399776Y-94274301D01*
X135549301Y-94124776D01*
X135670589Y-93951558D01*
X135680101Y-93931161D01*
X135757633Y-93764892D01*
X135757634Y-93764891D01*
X135759956Y-93759910D01*
X135814686Y-93555655D01*
X135833116Y-93345000D01*
X138486884Y-93345000D01*
X138505314Y-93555655D01*
X138560044Y-93759910D01*
X138562366Y-93764891D01*
X138562367Y-93764892D01*
X138639900Y-93931161D01*
X138649411Y-93951558D01*
X138770699Y-94124776D01*
X138920224Y-94274301D01*
X139093442Y-94395589D01*
X139098420Y-94397910D01*
X139098423Y-94397912D01*
X139270280Y-94478050D01*
X139285090Y-94484956D01*
X139290398Y-94486378D01*
X139290400Y-94486379D01*
X139484030Y-94538262D01*
X139484032Y-94538262D01*
X139489345Y-94539686D01*
X139700000Y-94558116D01*
X139910655Y-94539686D01*
X139915968Y-94538262D01*
X139915970Y-94538262D01*
X140109600Y-94486379D01*
X140109602Y-94486378D01*
X140114910Y-94484956D01*
X140129720Y-94478050D01*
X140301577Y-94397912D01*
X140301580Y-94397910D01*
X140306558Y-94395589D01*
X140479776Y-94274301D01*
X140629301Y-94124776D01*
X140750589Y-93951558D01*
X140760101Y-93931161D01*
X140837633Y-93764892D01*
X140837634Y-93764891D01*
X140839956Y-93759910D01*
X140894686Y-93555655D01*
X140913116Y-93345000D01*
X140894686Y-93134345D01*
X140861697Y-93011229D01*
X140841379Y-92935400D01*
X140841378Y-92935398D01*
X140839956Y-92930090D01*
X140750589Y-92738442D01*
X140629301Y-92565224D01*
X140479776Y-92415699D01*
X140306558Y-92294411D01*
X140301580Y-92292090D01*
X140301577Y-92292088D01*
X140119892Y-92207367D01*
X140119891Y-92207366D01*
X140114910Y-92205044D01*
X140109602Y-92203622D01*
X140109600Y-92203621D01*
X139915970Y-92151738D01*
X139915968Y-92151738D01*
X139910655Y-92150314D01*
X139700000Y-92131884D01*
X139489345Y-92150314D01*
X139484032Y-92151738D01*
X139484030Y-92151738D01*
X139290400Y-92203621D01*
X139290398Y-92203622D01*
X139285090Y-92205044D01*
X139280109Y-92207366D01*
X139280108Y-92207367D01*
X139098423Y-92292088D01*
X139098420Y-92292090D01*
X139093442Y-92294411D01*
X138920224Y-92415699D01*
X138770699Y-92565224D01*
X138649411Y-92738442D01*
X138560044Y-92930090D01*
X138558622Y-92935398D01*
X138558621Y-92935400D01*
X138538303Y-93011229D01*
X138505314Y-93134345D01*
X138486884Y-93345000D01*
X135833116Y-93345000D01*
X135814686Y-93134345D01*
X135781697Y-93011229D01*
X135761379Y-92935400D01*
X135761378Y-92935398D01*
X135759956Y-92930090D01*
X135670589Y-92738442D01*
X135549301Y-92565224D01*
X135399776Y-92415699D01*
X135226558Y-92294411D01*
X135221580Y-92292090D01*
X135221577Y-92292088D01*
X135039892Y-92207367D01*
X135039891Y-92207366D01*
X135034910Y-92205044D01*
X135029602Y-92203622D01*
X135029600Y-92203621D01*
X134835970Y-92151738D01*
X134835968Y-92151738D01*
X134830655Y-92150314D01*
X134620000Y-92131884D01*
X134409345Y-92150314D01*
X134404032Y-92151738D01*
X134404030Y-92151738D01*
X134210400Y-92203621D01*
X134210398Y-92203622D01*
X134205090Y-92205044D01*
X134200109Y-92207366D01*
X134200108Y-92207367D01*
X134018423Y-92292088D01*
X134018420Y-92292090D01*
X134013442Y-92294411D01*
X133840224Y-92415699D01*
X133690699Y-92565224D01*
X133569411Y-92738442D01*
X133480044Y-92930090D01*
X133478622Y-92935398D01*
X133478621Y-92935400D01*
X133458303Y-93011229D01*
X133425314Y-93134345D01*
X133406884Y-93345000D01*
X124968500Y-93345000D01*
X124968500Y-91547655D01*
X125239858Y-91547655D01*
X125275104Y-91806638D01*
X125276412Y-91811124D01*
X125276412Y-91811126D01*
X125290049Y-91857912D01*
X125348243Y-92057567D01*
X125457668Y-92294928D01*
X125460231Y-92298837D01*
X125598410Y-92509596D01*
X125598414Y-92509601D01*
X125600976Y-92513509D01*
X125775018Y-92708506D01*
X125975970Y-92875637D01*
X125979973Y-92878066D01*
X126195422Y-93008804D01*
X126195426Y-93008806D01*
X126199419Y-93011229D01*
X126440455Y-93112303D01*
X126693783Y-93176641D01*
X126698434Y-93177109D01*
X126698438Y-93177110D01*
X126891308Y-93196531D01*
X126910867Y-93198500D01*
X127066354Y-93198500D01*
X127068679Y-93198327D01*
X127068685Y-93198327D01*
X127256000Y-93184407D01*
X127256004Y-93184406D01*
X127260652Y-93184061D01*
X127265200Y-93183032D01*
X127265206Y-93183031D01*
X127456146Y-93139825D01*
X127515577Y-93126377D01*
X127551769Y-93112303D01*
X127754824Y-93033340D01*
X127754827Y-93033339D01*
X127759177Y-93031647D01*
X127986098Y-92901951D01*
X128191357Y-92740138D01*
X128370443Y-92549763D01*
X128519424Y-92335009D01*
X128539445Y-92294411D01*
X128632960Y-92104781D01*
X128632961Y-92104778D01*
X128635025Y-92100593D01*
X128684845Y-91944956D01*
X128713280Y-91856123D01*
X128714707Y-91851665D01*
X128756721Y-91593693D01*
X128760142Y-91332345D01*
X128724896Y-91073362D01*
X128710473Y-91023877D01*
X128653068Y-90826932D01*
X128651757Y-90822433D01*
X128542332Y-90585072D01*
X128417978Y-90395400D01*
X128401590Y-90370404D01*
X128401586Y-90370399D01*
X128399024Y-90366491D01*
X128224982Y-90171494D01*
X128024030Y-90004363D01*
X127976844Y-89975730D01*
X127804578Y-89871196D01*
X127804574Y-89871194D01*
X127800581Y-89868771D01*
X127559545Y-89767697D01*
X127306217Y-89703359D01*
X127301566Y-89702891D01*
X127301562Y-89702890D01*
X127092271Y-89681816D01*
X127089133Y-89681500D01*
X126933646Y-89681500D01*
X126931321Y-89681673D01*
X126931315Y-89681673D01*
X126744000Y-89695593D01*
X126743996Y-89695594D01*
X126739348Y-89695939D01*
X126734800Y-89696968D01*
X126734794Y-89696969D01*
X126556396Y-89737337D01*
X126484423Y-89753623D01*
X126480071Y-89755315D01*
X126480069Y-89755316D01*
X126245176Y-89846660D01*
X126245173Y-89846661D01*
X126240823Y-89848353D01*
X126236769Y-89850670D01*
X126236767Y-89850671D01*
X126167144Y-89890464D01*
X126013902Y-89978049D01*
X125808643Y-90139862D01*
X125629557Y-90330237D01*
X125480576Y-90544991D01*
X125364975Y-90779407D01*
X125285293Y-91028335D01*
X125243279Y-91286307D01*
X125243218Y-91290980D01*
X125241581Y-91416063D01*
X125239858Y-91547655D01*
X124968500Y-91547655D01*
X124968500Y-90223250D01*
X124970246Y-90202345D01*
X124972770Y-90187344D01*
X124972770Y-90187341D01*
X124973576Y-90182552D01*
X124973650Y-90176475D01*
X124973670Y-90174865D01*
X124973670Y-90174861D01*
X124973729Y-90170000D01*
X124972788Y-90163429D01*
X124972123Y-90133218D01*
X124981916Y-90033789D01*
X124986733Y-90009568D01*
X125022866Y-89890454D01*
X125032315Y-89867645D01*
X125090987Y-89757876D01*
X125104705Y-89737345D01*
X125183671Y-89641124D01*
X125201124Y-89623671D01*
X125297345Y-89544705D01*
X125317876Y-89530987D01*
X125427645Y-89472315D01*
X125450454Y-89462866D01*
X125569568Y-89426733D01*
X125593789Y-89421916D01*
X125689809Y-89412459D01*
X125705868Y-89412909D01*
X125705877Y-89412200D01*
X125714853Y-89412310D01*
X125723724Y-89413691D01*
X125732626Y-89412527D01*
X125732628Y-89412527D01*
X125749059Y-89410378D01*
X125755286Y-89409564D01*
X125771621Y-89408500D01*
X131665459Y-89408500D01*
X131733580Y-89428502D01*
G37*
%TD.AperFunction*%
%TD*%
M02*
